<?xml version="1.0" encoding="UTF-8"?>
<!DOCTYPE svg PUBLIC "-//W3C//DTD SVG 1.1//EN" "http://www.w3.org/Graphics/SVG/1.1/DTD/svg11.dtd">
<svg xmlns="http://www.w3.org/2000/svg" version="1.1" width="1536px" height="1024px" style="shape-rendering:geometricPrecision; text-rendering:geometricPrecision; image-rendering:optimizeQuality; fill-rule:evenodd; clip-rule:evenodd" xmlns:xlink="http://www.w3.org/1999/xlink">
<g><path style="opacity:1" fill="#f9f9f9" d="M -0.5,-0.5 C 511.5,-0.5 1023.5,-0.5 1535.5,-0.5C 1535.5,340.833 1535.5,682.167 1535.5,1023.5C 1023.5,1023.5 511.5,1023.5 -0.5,1023.5C -0.5,682.167 -0.5,340.833 -0.5,-0.5 Z"/></g>
<g><path style="opacity:1" fill="#01255b" d="M 381.5,606.5 C 365.541,617.959 351.708,631.625 340,647.5C 342.58,641.007 345.746,634.674 349.5,628.5C 379.16,584.528 419.826,556.195 471.5,543.5C 471.657,542.127 471.49,540.793 471,539.5C 465.66,528.149 459.826,517.149 453.5,506.5C 438.984,513.25 425.318,521.25 412.5,530.5C 411.355,529.207 411.689,528.041 413.5,527C 412.216,526.316 411.049,526.483 410,527.5C 407.822,526.107 406.822,524.44 407,522.5C 406.439,523.022 405.772,523.355 405,523.5C 402.61,522.722 400.443,521.555 398.5,520C 396.538,520.141 394.704,519.974 393,519.5C 391.404,520.497 389.904,521.663 388.5,523C 389.767,524.796 389.767,526.629 388.5,528.5C 392.56,531.196 396.893,533.363 401.5,535C 399.974,536.887 397.974,537.887 395.5,538C 393.606,539.079 393.273,540.413 394.5,542C 393.069,542.465 391.903,543.299 391,544.5C 389.513,543.747 389.346,542.914 390.5,542C 387.5,540.833 384.5,539.667 381.5,538.5C 380.914,538.709 380.414,539.043 380,539.5C 377.12,538.162 374.62,536.495 372.5,534.5C 386.57,511.089 404.57,491.089 426.5,474.5C 428.935,473.87 429.602,472.537 428.5,470.5C 426.829,473.081 426.329,472.748 427,469.5C 428.425,468.788 429.925,468.621 431.5,469C 430.782,467.013 429.782,465.179 428.5,463.5C 428.833,462.833 429.167,462.167 429.5,461.5C 425.518,461.716 422.184,461.382 419.5,460.5C 422.667,460.6 425.667,459.933 428.5,458.5C 429.843,450.873 428.843,443.54 425.5,436.5C 428.1,433.349 428.1,430.349 425.5,427.5C 425.334,420.825 425.5,414.158 426,407.5C 426.169,413.859 426.669,420.193 427.5,426.5C 429.349,423.675 430.683,420.508 431.5,417C 431.18,415.347 430.18,414.347 428.5,414C 431.683,411.521 432.016,408.854 429.5,406C 430.428,405.612 431.095,404.945 431.5,404C 431.14,402.348 430.807,400.682 430.5,399C 425.78,397.298 421.113,395.631 416.5,394C 417.641,393.259 417.641,392.425 416.5,391.5C 413.354,390.711 410.187,390.045 407,389.5C 405.578,390.205 404.245,390.539 403,390.5C 402.417,388.998 401.584,387.665 400.5,386.5C 397.048,385.274 393.715,383.774 390.5,382C 391.833,381 391.833,380 390.5,379C 387.574,378.782 384.74,378.282 382,377.5C 381.311,378.357 380.478,379.023 379.5,379.5C 379.762,377.868 378.762,376.701 376.5,376C 375.101,375.405 373.768,375.572 372.5,376.5C 369.639,373.992 366.305,372.325 362.5,371.5C 363.796,369.421 365.462,367.754 367.5,366.5C 366.009,365.756 364.509,365.09 363,364.5C 362.667,364.833 362.333,365.167 362,365.5C 362.035,361.755 361.035,361.088 359,363.5C 354.926,362.902 351.093,363.902 347.5,366.5C 346.968,364.924 346.635,362.924 346.5,360.5C 339.178,360.232 338.844,361.065 345.5,363C 340.216,364.289 340.216,365.622 345.5,367C 345.272,367.399 344.938,367.565 344.5,367.5C 340.873,366.679 337.54,365.346 334.5,363.5C 336.429,363.769 338.095,363.269 339.5,362C 338.833,361.667 338.167,361.333 337.5,361C 338.833,360.333 338.833,359.667 337.5,359C 335.58,357.878 333.58,357.044 331.5,356.5C 331.738,352.901 330.738,352.567 328.5,355.5C 327.28,354.289 326.113,354.289 325,355.5C 324.617,352.527 325.117,349.694 326.5,347C 328.256,346.86 329.922,347.36 331.5,348.5C 332.5,348 333.5,347.5 334.5,347C 331.692,346.981 329.359,345.981 327.5,344C 329.002,343.417 330.335,342.584 331.5,341.5C 329.647,340.24 327.814,340.24 326,341.5C 325.667,340.5 325.333,339.5 325,338.5C 324.749,340.433 324.249,342.266 323.5,344C 324.167,344.333 324.833,344.667 325.5,345C 319.53,347.417 318.863,346.25 323.5,341.5C 322.311,340.571 320.978,340.238 319.5,340.5C 319.662,342.527 319.495,344.527 319,346.5C 318.361,343.772 317.194,343.272 315.5,345C 316.167,345.333 316.833,345.667 317.5,346C 316.216,346.684 315.049,346.517 314,345.5C 313.506,343.866 313.34,342.199 313.5,340.5C 310.735,340.798 308.235,341.798 306,343.5C 304.108,342.87 302.441,341.87 301,340.5C 301.629,343.484 301.463,346.484 300.5,349.5C 299.305,351.297 297.638,352.297 295.5,352.5C 295.719,353.675 295.386,354.675 294.5,355.5C 292.267,355.136 290.434,354.136 289,352.5C 287.902,353.967 286.402,354.801 284.5,355C 286.004,356.491 286.837,358.324 287,360.5C 288.281,360.381 289.448,360.881 290.5,362C 289.5,362.333 288.5,362.667 287.5,363C 288.833,363.667 289.833,364.667 290.5,366C 286.585,366.015 282.918,366.848 279.5,368.5C 278.494,368.062 278.494,367.396 279.5,366.5C 276.833,365.167 274.167,365.167 271.5,366.5C 273.326,366.92 275.326,366.92 277.5,366.5C 277.785,368.288 277.452,369.955 276.5,371.5C 274.595,369.942 273.761,370.275 274,372.5C 276.042,372.818 278.209,372.985 280.5,373C 277.892,376.031 278.892,377.365 283.5,377C 285.335,377.928 285.668,379.094 284.5,380.5C 280.995,383.078 277.329,383.578 273.5,382C 273.833,381.667 274.167,381.333 274.5,381C 270.574,378.5 268.074,375.334 267,371.5C 266.121,375.031 264.288,375.864 261.5,374C 262.759,373.077 264.092,372.243 265.5,371.5C 263.425,369.17 260.758,368.003 257.5,368C 256.809,366.933 256.309,365.766 256,364.5C 255.626,365.416 255.126,366.25 254.5,367C 256.774,370.918 257.107,375.085 255.5,379.5C 256.689,380.429 258.022,380.762 259.5,380.5C 259.351,381.552 259.517,382.552 260,383.5C 262.429,384.029 264.262,385.363 265.5,387.5C 262.068,388.438 259.568,389.771 258,391.5C 257.167,391.333 256.333,391.167 255.5,391C 254.264,388.646 252.597,386.646 250.5,385C 249.551,384.383 248.718,384.549 248,385.5C 247.691,384.234 247.191,383.067 246.5,382C 247.337,380.989 247.67,379.822 247.5,378.5C 248.822,378.33 249.989,378.663 251,379.5C 251.569,375.639 252.402,375.639 253.5,379.5C 256.102,377.391 255.769,375.724 252.5,374.5C 247.936,376.931 243.269,377.598 238.5,376.5C 238.92,378.674 238.92,380.674 238.5,382.5C 239.263,383.719 240.263,384.719 241.5,385.5C 238.721,386.673 238.054,388.507 239.5,391C 238.833,391.333 238.167,391.667 237.5,392C 241.5,392.328 244.5,394.161 246.5,397.5C 245.099,398.521 243.765,399.521 242.5,400.5C 241.4,401.558 240.066,402.392 238.5,403C 255.076,410.457 271.743,417.624 288.5,424.5C 287.828,425.267 286.995,425.934 286,426.5C 283.636,424.637 281.136,422.971 278.5,421.5C 275.79,422.876 273.79,424.876 272.5,427.5C 272.169,436.192 272.502,444.859 273.5,453.5C 292.264,459.553 310.264,467.22 327.5,476.5C 328.225,477.97 329.891,479.136 332.5,480C 330.122,481.915 328.622,484.415 328,487.5C 324.311,488.925 320.144,489.759 315.5,490C 314.328,490.419 313.328,491.085 312.5,492C 313.833,493 315.167,494 316.5,495C 314.338,496.645 313.005,498.812 312.5,501.5C 313.325,502.386 314.325,502.719 315.5,502.5C 315.646,504.942 314.813,505.609 313,504.5C 309.864,507.984 306.031,510.318 301.5,511.5C 299.246,510.585 297.246,509.252 295.5,507.5C 296.038,505.883 296.371,504.216 296.5,502.5C 291.318,502.443 291.318,501.776 296.5,500.5C 294.647,499.24 292.814,499.24 291,500.5C 290.173,499.338 289.34,498.171 288.5,497C 289.694,494.153 289.694,491.32 288.5,488.5C 286.657,488.755 284.657,488.922 282.5,489C 282,489.5 281.5,490 281,490.5C 274.972,487.793 269.472,484.293 264.5,480C 265.288,476.924 265.788,473.758 266,470.5C 267.342,471.902 268.176,471.569 268.5,469.5C 268.392,468.558 268.059,467.725 267.5,467C 265.616,466.784 263.949,466.117 262.5,465C 260.08,465.025 257.747,465.691 255.5,467C 257.709,468.691 259.542,468.524 261,466.5C 261.692,467.025 262.192,467.692 262.5,468.5C 259.316,468.787 257.316,470.453 256.5,473.5C 255.808,472.975 255.308,472.308 255,471.5C 252.25,471.025 249.75,471.525 247.5,473C 248.167,472.667 248.833,472.333 249.5,472C 246.768,471.587 244.101,470.92 241.5,470C 241.5,469 241.5,468 241.5,467C 237.974,464.913 234.974,465.58 232.5,469C 234.833,470.667 237.167,472.333 239.5,474C 238.376,474.249 237.376,474.749 236.5,475.5C 241.01,478.074 240.177,480.074 234,481.5C 232.118,480.907 231.118,479.573 231,477.5C 230.517,478.448 230.351,479.448 230.5,480.5C 229.325,480.719 228.325,480.386 227.5,479.5C 227.846,478.304 228.346,478.304 229,479.5C 229.667,477.167 229.667,474.833 229,472.5C 228.784,474.384 228.117,476.051 227,477.5C 225.184,475.559 223.184,474.892 221,475.5C 220.505,473.527 220.338,471.527 220.5,469.5C 221.552,469.649 222.552,469.483 223.5,469C 221.866,468.506 220.199,468.34 218.5,468.5C 218.33,469.822 218.663,470.989 219.5,472C 218.5,474 217.5,474 216.5,472C 217.38,470.644 217.714,469.144 217.5,467.5C 218.5,467.5 219.5,467.5 220.5,467.5C 220.5,466.5 220.5,465.5 220.5,464.5C 218.856,464.286 217.356,464.62 216,465.5C 216.583,467.554 216.083,469.554 214.5,471.5C 213.294,469.516 213.294,467.516 214.5,465.5C 213.675,464.614 212.675,464.281 211.5,464.5C 211.993,466.806 212.326,469.139 212.5,471.5C 211.5,471.5 210.5,471.5 209.5,471.5C 209.232,468.881 209.565,466.381 210.5,464C 209.407,462.635 208.074,462.301 206.5,463C 207.898,468.296 208.398,473.463 208,478.5C 206.507,480.348 204.674,481.181 202.5,481C 201.167,479.16 201.334,478.66 203,479.5C 204.158,479.002 204.991,478.169 205.5,477C 204.127,474.853 202.46,473.853 200.5,474C 201.905,472.731 203.571,472.231 205.5,472.5C 205.657,471.127 205.49,469.793 205,468.5C 203.982,469.706 203.482,469.373 203.5,467.5C 204.152,465.595 204.319,463.595 204,461.5C 204.556,463.595 205.056,463.762 205.5,462C 204.991,460.831 204.158,459.998 203,459.5C 202.667,462.833 202.333,466.167 202,469.5C 201.5,469 201,468.5 200.5,468C 201.833,462 201.833,456 200.5,450C 202.017,448.221 202.851,448.721 203,451.5C 204.471,450.619 205.304,449.286 205.5,447.5C 204.394,443.568 202.728,439.901 200.5,436.5C 200.119,447.998 199.119,459.332 197.5,470.5C 198.383,471.548 199.05,472.715 199.5,474C 198.351,475.73 198.351,477.396 199.5,479C 196.833,480.333 196.833,481.667 199.5,483C 198.833,483.667 198.167,484.333 197.5,485C 199.054,487.224 200.054,489.724 200.5,492.5C 198.714,496.307 197.548,500.307 197,504.5C 196.208,502.413 195.041,500.579 193.5,499C 195.006,494.136 196.006,489.136 196.5,484C 195.999,468.346 195.999,452.513 196.5,436.5C 195.843,424.637 195.176,412.803 194.5,401C 195.765,394.054 195.765,387.054 194.5,380C 195.085,374.803 195.752,369.637 196.5,364.5C 195.828,362.47 195.162,360.47 194.5,358.5C 243.708,351.486 290.208,336.153 334,312.5C 369.085,331.787 406.252,345.62 445.5,354C 456.033,356.473 466.7,357.973 477.5,358.5C 477.667,413.501 477.5,468.501 477,523.5C 476.436,531.554 475.436,539.554 474,547.5C 471.851,554.775 470.018,562.108 468.5,569.5C 436.494,575.009 407.494,587.343 381.5,606.5 Z"/></g>
<g><path style="opacity:1" fill="#042558" d="M 192.5,345.5 C 188.661,344.353 184.661,344.353 180.5,345.5C 176.656,345.545 175.989,344.379 178.5,342C 177.289,341.107 177.289,340.274 178.5,339.5C 182.837,339.915 186.837,341.249 190.5,343.5C 192.942,342.616 193.775,340.949 193,338.5C 191.028,337.695 189.528,336.361 188.5,334.5C 186.669,335.929 184.669,336.429 182.5,336C 183.167,335.667 183.833,335.333 184.5,335C 183.376,334.751 182.376,334.251 181.5,333.5C 181.667,333.167 181.833,332.833 182,332.5C 184.149,333.84 185.316,333.173 185.5,330.5C 237.406,324.228 285.406,307.895 329.5,281.5C 327.938,288.142 326.438,294.808 325,301.5C 283.608,324.393 239.441,339.059 192.5,345.5 Z"/></g>
<g><path style="opacity:1" fill="#f3f3fa" d="M 156.5,334.5 C 157.675,334.281 158.675,334.614 159.5,335.5C 159.154,336.696 158.654,336.696 158,335.5C 157.833,336.333 157.667,337.167 157.5,338C 158.735,343.491 158.735,348.991 157.5,354.5C 157.86,356.608 158.527,358.608 159.5,360.5C 159.069,411.434 159.069,462.101 159.5,512.5C 158.855,513.646 158.022,514.646 157,515.5C 156.5,455.168 156.333,394.834 156.5,334.5 Z"/></g>
<g><path style="opacity:1" fill="#012457" d="M 334.5,363.5 C 303.823,375.84 273.156,388.173 242.5,400.5C 243.765,399.521 245.099,398.521 246.5,397.5C 244.5,394.161 241.5,392.328 237.5,392C 238.167,391.667 238.833,391.333 239.5,391C 238.054,388.507 238.721,386.673 241.5,385.5C 240.263,384.719 239.263,383.719 238.5,382.5C 238.92,380.674 238.92,378.674 238.5,376.5C 243.269,377.598 247.936,376.931 252.5,374.5C 255.769,375.724 256.102,377.391 253.5,379.5C 252.402,375.639 251.569,375.639 251,379.5C 249.989,378.663 248.822,378.33 247.5,378.5C 247.67,379.822 247.337,380.989 246.5,382C 247.191,383.067 247.691,384.234 248,385.5C 248.718,384.549 249.551,384.383 250.5,385C 252.597,386.646 254.264,388.646 255.5,391C 256.333,391.167 257.167,391.333 258,391.5C 259.568,389.771 262.068,388.438 265.5,387.5C 264.262,385.363 262.429,384.029 260,383.5C 259.517,382.552 259.351,381.552 259.5,380.5C 258.022,380.762 256.689,380.429 255.5,379.5C 257.107,375.085 256.774,370.918 254.5,367C 255.126,366.25 255.626,365.416 256,364.5C 256.309,365.766 256.809,366.933 257.5,368C 260.758,368.003 263.425,369.17 265.5,371.5C 264.092,372.243 262.759,373.077 261.5,374C 264.288,375.864 266.121,375.031 267,371.5C 268.074,375.334 270.574,378.5 274.5,381C 274.167,381.333 273.833,381.667 273.5,382C 277.329,383.578 280.995,383.078 284.5,380.5C 285.668,379.094 285.335,377.928 283.5,377C 278.892,377.365 277.892,376.031 280.5,373C 278.209,372.985 276.042,372.818 274,372.5C 273.761,370.275 274.595,369.942 276.5,371.5C 277.452,369.955 277.785,368.288 277.5,366.5C 275.326,366.92 273.326,366.92 271.5,366.5C 274.167,365.167 276.833,365.167 279.5,366.5C 278.494,367.396 278.494,368.062 279.5,368.5C 282.918,366.848 286.585,366.015 290.5,366C 289.833,364.667 288.833,363.667 287.5,363C 288.5,362.667 289.5,362.333 290.5,362C 289.448,360.881 288.281,360.381 287,360.5C 286.837,358.324 286.004,356.491 284.5,355C 286.402,354.801 287.902,353.967 289,352.5C 290.434,354.136 292.267,355.136 294.5,355.5C 295.386,354.675 295.719,353.675 295.5,352.5C 297.638,352.297 299.305,351.297 300.5,349.5C 301.463,346.484 301.629,343.484 301,340.5C 302.441,341.87 304.108,342.87 306,343.5C 308.235,341.798 310.735,340.798 313.5,340.5C 313.34,342.199 313.506,343.866 314,345.5C 315.049,346.517 316.216,346.684 317.5,346C 316.833,345.667 316.167,345.333 315.5,345C 317.194,343.272 318.361,343.772 319,346.5C 319.495,344.527 319.662,342.527 319.5,340.5C 320.978,340.238 322.311,340.571 323.5,341.5C 318.863,346.25 319.53,347.417 325.5,345C 324.833,344.667 324.167,344.333 323.5,344C 324.249,342.266 324.749,340.433 325,338.5C 325.333,339.5 325.667,340.5 326,341.5C 327.814,340.24 329.647,340.24 331.5,341.5C 330.335,342.584 329.002,343.417 327.5,344C 329.359,345.981 331.692,346.981 334.5,347C 333.5,347.5 332.5,348 331.5,348.5C 329.922,347.36 328.256,346.86 326.5,347C 325.117,349.694 324.617,352.527 325,355.5C 326.113,354.289 327.28,354.289 328.5,355.5C 330.738,352.567 331.738,352.901 331.5,356.5C 333.58,357.044 335.58,357.878 337.5,359C 338.833,359.667 338.833,360.333 337.5,361C 338.167,361.333 338.833,361.667 339.5,362C 338.095,363.269 336.429,363.769 334.5,363.5 Z"/></g>
<g><path style="opacity:1" fill="#01255e" d="M 185.5,330.5 C 185.316,333.173 184.149,333.84 182,332.5C 181.833,332.833 181.667,333.167 181.5,333.5C 182.376,334.251 183.376,334.751 184.5,335C 183.833,335.333 183.167,335.667 182.5,336C 184.669,336.429 186.669,335.929 188.5,334.5C 189.528,336.361 191.028,337.695 193,338.5C 193.775,340.949 192.942,342.616 190.5,343.5C 186.837,341.249 182.837,339.915 178.5,339.5C 177.289,340.274 177.289,341.107 178.5,342C 175.989,344.379 176.656,345.545 180.5,345.5C 184.661,344.353 188.661,344.353 192.5,345.5C 190.585,345.216 188.919,345.549 187.5,346.5C 183.785,346.423 180.119,346.756 176.5,347.5C 174.398,348.269 172.064,348.436 169.5,348C 170.167,348.333 170.833,348.667 171.5,349C 169.714,349.785 168.214,350.951 167,352.5C 164.626,357.239 163.459,362.239 163.5,367.5C 166.42,366.558 169.086,365.224 171.5,363.5C 171.643,365.262 171.309,366.929 170.5,368.5C 171.383,369.548 172.05,370.715 172.5,372C 170.241,373.746 168.908,376.08 168.5,379C 168.441,382.584 169.108,386.251 170.5,390C 170.461,395.824 170.128,401.657 169.5,407.5C 170.226,412.142 170.893,416.809 171.5,421.5C 170.35,425.434 169.516,429.434 169,433.5C 167.954,435.09 166.787,436.59 165.5,438C 165.904,440.07 165.904,442.236 165.5,444.5C 166.667,447.167 167.833,449.833 169,452.5C 169.687,464.062 170.854,475.562 172.5,487C 172.617,490.67 171.951,494.17 170.5,497.5C 170.939,499.104 171.606,500.604 172.5,502C 169.251,506.605 168.917,511.272 171.5,516C 169.765,516.651 168.098,516.485 166.5,515.5C 165.833,516.167 165.167,516.833 164.5,517.5C 163.833,521.647 163.166,525.647 162.5,529.5C 161.771,524.87 161.437,520.203 161.5,515.5C 162.499,455.336 162.832,395.002 162.5,334.5C 167.5,333.997 167.167,333.664 161.5,333.5C 169.317,332.148 177.317,331.148 185.5,330.5 Z"/></g>
<g><path style="opacity:1" fill="#0a2759" d="M 425.5,427.5 C 424.508,420.352 424.175,413.019 424.5,405.5C 425.6,404.442 426.934,403.608 428.5,403C 400.359,391.239 372.359,379.406 344.5,367.5C 344.938,367.565 345.272,367.399 345.5,367C 340.216,365.622 340.216,364.289 345.5,363C 338.844,361.065 339.178,360.232 346.5,360.5C 346.635,362.924 346.968,364.924 347.5,366.5C 351.093,363.902 354.926,362.902 359,363.5C 361.035,361.088 362.035,361.755 362,365.5C 362.333,365.167 362.667,364.833 363,364.5C 364.509,365.09 366.009,365.756 367.5,366.5C 365.462,367.754 363.796,369.421 362.5,371.5C 366.305,372.325 369.639,373.992 372.5,376.5C 373.768,375.572 375.101,375.405 376.5,376C 378.762,376.701 379.762,377.868 379.5,379.5C 380.478,379.023 381.311,378.357 382,377.5C 384.74,378.282 387.574,378.782 390.5,379C 391.833,380 391.833,381 390.5,382C 393.715,383.774 397.048,385.274 400.5,386.5C 401.584,387.665 402.417,388.998 403,390.5C 404.245,390.539 405.578,390.205 407,389.5C 410.187,390.045 413.354,390.711 416.5,391.5C 417.641,392.425 417.641,393.259 416.5,394C 421.113,395.631 425.78,397.298 430.5,399C 430.807,400.682 431.14,402.348 431.5,404C 431.095,404.945 430.428,405.612 429.5,406C 432.016,408.854 431.683,411.521 428.5,414C 430.18,414.347 431.18,415.347 431.5,417C 430.683,420.508 429.349,423.675 427.5,426.5C 426.669,420.193 426.169,413.859 426,407.5C 425.5,414.158 425.334,420.825 425.5,427.5 Z"/></g>
<g><path style="opacity:1" fill="#f8f8f8" d="M 334.5,363.5 C 337.54,365.346 340.873,366.679 344.5,367.5C 372.359,379.406 400.359,391.239 428.5,403C 426.934,403.608 425.6,404.442 424.5,405.5C 422.62,405.229 421.287,405.896 420.5,407.5C 391.466,419.011 362.633,431.011 334,443.5C 318.869,437.016 303.703,430.683 288.5,424.5C 271.743,417.624 255.076,410.457 238.5,403C 240.066,402.392 241.4,401.558 242.5,400.5C 273.156,388.173 303.823,375.84 334.5,363.5 Z"/></g>
<g><path style="opacity:1" fill="#000643" d="M 161.5,333.5 C 167.167,333.664 167.5,333.997 162.5,334.5C 162.832,395.002 162.499,455.336 161.5,515.5C 161.5,454.833 161.5,394.167 161.5,333.5 Z"/></g>
<g><path style="opacity:1" fill="#b88e51" d="M 1310.5,426.5 C 1326.84,426.333 1343.17,426.5 1359.5,427C 1397.59,433.426 1415.09,455.926 1412,494.5C 1406.61,521.894 1390.11,537.728 1362.5,542C 1345.17,542.5 1327.84,542.667 1310.5,542.5C 1310.5,503.833 1310.5,465.167 1310.5,426.5 Z"/></g>
<g><path style="opacity:1" fill="#b98e50" d="M 1028.5,444.5 C 1010.83,444.5 993.167,444.5 975.5,444.5C 975.5,455.167 975.5,465.833 975.5,476.5C 991.833,476.5 1008.17,476.5 1024.5,476.5C 1024.82,482.358 1024.49,488.025 1023.5,493.5C 1007.5,493.5 991.5,493.5 975.5,493.5C 975.5,509.833 975.5,526.167 975.5,542.5C 968.833,542.5 962.167,542.5 955.5,542.5C 955.5,504.167 955.5,465.833 955.5,427.5C 979.833,427.5 1004.17,427.5 1028.5,427.5C 1028.5,433.167 1028.5,438.833 1028.5,444.5 Z"/></g>
<g><path style="opacity:1" fill="#022859" d="M 607.5,444.5 C 607.5,454.5 607.5,464.5 607.5,474.5C 605.745,475.072 604.078,475.906 602.5,477C 604.26,477.965 604.594,479.132 603.5,480.5C 601.805,478.465 600.472,476.132 599.5,473.5C 600.5,472.667 601.5,471.833 602.5,471C 600.402,470.986 598.569,471.153 597,471.5C 595.133,469.244 595.133,466.91 597,464.5C 599.158,463.174 600.992,461.507 602.5,459.5C 602.167,458.833 601.833,458.167 601.5,457.5C 604.053,455.038 604.053,452.705 601.5,450.5C 600.16,451.688 599.493,453.188 599.5,455C 601.471,458.793 600.804,459.793 597.5,458C 598.152,455.91 598.319,453.743 598,451.5C 599.171,450.107 600.671,449.273 602.5,449C 601.975,448.308 601.308,447.808 600.5,447.5C 598.018,449.344 595.351,450.677 592.5,451.5C 592.5,453.5 592.5,455.5 592.5,457.5C 594.109,457.094 595.443,457.094 596.5,457.5C 592.587,462.963 590.587,469.129 590.5,476C 591.907,478.302 591.741,480.469 590,482.5C 588.311,471.969 588.144,461.469 589.5,451C 588.877,448.393 588.21,445.893 587.5,443.5C 587.5,438.5 587.5,433.5 587.5,428.5C 612.833,428.5 638.167,428.5 663.5,428.5C 663.5,433.5 663.5,438.5 663.5,443.5C 644.659,443.17 625.993,443.503 607.5,444.5 Z"/></g>
<g><path style="opacity:1" fill="#f6f6f7" d="M 272.5,427.5 C 292.818,435.407 312.985,443.741 333,452.5C 353.355,444.658 373.522,436.325 393.5,427.5C 394.833,436.167 394.833,444.833 393.5,453.5C 373.659,460.394 354.326,468.56 335.5,478C 332.678,478.428 330.012,477.928 327.5,476.5C 310.264,467.22 292.264,459.553 273.5,453.5C 272.502,444.859 272.169,436.192 272.5,427.5 Z"/></g>
<g><path style="opacity:1" fill="#00255c" d="M 606.5,430.5 C 619.956,431.529 633.456,431.529 647,430.5C 649.135,431.127 651.302,431.627 653.5,432C 654.833,433 654.833,434 653.5,435C 655.05,437.459 657.05,438.126 659.5,437C 659.833,437.333 660.167,437.667 660.5,438C 657.712,438.139 655.045,439.305 652.5,441.5C 648.539,440.441 644.539,440.441 640.5,441.5C 636.898,440.535 633.231,439.869 629.5,439.5C 626.869,439.321 624.535,439.987 622.5,441.5C 621.5,440.5 620.5,439.5 619.5,438.5C 619.709,437.914 620.043,437.414 620.5,437C 617.551,436.61 615.384,435.11 614,432.5C 613.51,433.793 613.343,435.127 613.5,436.5C 611.143,436.337 608.81,436.503 606.5,437C 608.26,437.965 608.594,439.132 607.5,440.5C 605.016,439.227 602.516,439.227 600,440.5C 597.672,442.662 595.506,444.995 593.5,447.5C 592.167,443.167 592.167,438.833 593.5,434.5C 596.167,433.167 596.833,433.833 595.5,436.5C 596.328,437.415 597.328,438.081 598.5,438.5C 600.776,437.787 603.109,437.287 605.5,437C 603.956,436.71 602.623,436.044 601.5,435C 603.618,433.951 605.284,432.451 606.5,430.5 Z"/></g>
<g><path style="opacity:1" fill="#00245b" d="M 715.5,444.5 C 714.502,471.328 714.169,498.328 714.5,525.5C 723.5,525.5 732.5,525.5 741.5,525.5C 733.01,526.33 724.343,526.83 715.5,527C 715.966,528.299 715.966,529.799 715.5,531.5C 717.857,531.663 720.19,531.497 722.5,531C 720.214,529.535 720.714,528.701 724,528.5C 725.823,528.887 727.657,529.221 729.5,529.5C 732.224,527.538 735.224,527.538 738.5,529.5C 739.597,533.281 738.097,535.614 734,536.5C 729.639,535.88 725.473,535.046 721.5,534C 723.091,536.133 725.091,537.799 727.5,539C 725.509,539.374 723.842,540.207 722.5,541.5C 713.5,541.5 704.5,541.5 695.5,541.5C 695.5,509.833 695.5,478.167 695.5,446.5C 695.949,450.319 697.115,453.985 699,457.5C 699.417,454.578 700.417,451.911 702,449.5C 704.029,451.436 706.195,451.27 708.5,449C 705.437,447.934 703.937,445.767 704,442.5C 702.5,441 701,439.5 699.5,438C 704.15,432.008 710.15,429.841 717.5,431.5C 715.988,432.862 714.488,433.196 713,432.5C 707.873,434.623 707.707,436.29 712.5,437.5C 713.736,436.754 715.07,436.421 716.5,436.5C 718.558,441.713 717.224,442.713 712.5,439.5C 712.167,439.833 711.833,440.167 711.5,440.5C 712.867,441.84 714.2,443.173 715.5,444.5 Z"/></g>
<g><path style="opacity:1" fill="#011248" d="M 665.5,427.5 C 665.5,433.167 665.5,438.833 665.5,444.5C 646.167,444.5 626.833,444.5 607.5,444.5C 625.993,443.503 644.659,443.17 663.5,443.5C 663.5,438.5 663.5,433.5 663.5,428.5C 638.167,428.5 612.833,428.5 587.5,428.5C 587.5,433.5 587.5,438.5 587.5,443.5C 587.5,466.167 587.5,488.833 587.5,511.5C 587.5,521.5 587.5,531.5 587.5,541.5C 613.167,541.5 638.833,541.5 664.5,541.5C 664.5,536.5 664.5,531.5 664.5,526.5C 645.5,526.5 626.5,526.5 607.5,526.5C 626.993,525.503 646.66,525.17 666.5,525.5C 666.5,531.167 666.5,536.833 666.5,542.5C 639.833,542.5 613.167,542.5 586.5,542.5C 586.5,504.167 586.5,465.833 586.5,427.5C 612.833,427.5 639.167,427.5 665.5,427.5 Z"/></g>
<g><path style="opacity:1" fill="#b48a50" d="M 424.5,405.5 C 424.175,413.019 424.508,420.352 425.5,427.5C 428.1,430.349 428.1,433.349 425.5,436.5C 428.843,443.54 429.843,450.873 428.5,458.5C 425.667,459.933 422.667,460.6 419.5,460.5C 418.359,459.661 417.026,458.994 415.5,458.5C 415.167,457 414.833,455.5 414.5,454C 415.373,447.903 417.04,442.07 419.5,436.5C 416.91,433.383 416.91,430.383 419.5,427.5C 420.497,420.866 420.83,414.2 420.5,407.5C 421.287,405.896 422.62,405.229 424.5,405.5 Z"/></g>
<g><path style="opacity:1" fill="#8188a5" d="M 903.5,427.5 C 910.313,426.509 917.313,426.175 924.5,426.5C 924.831,452.339 924.498,478.005 923.5,503.5C 923.5,478.167 923.5,452.833 923.5,427.5C 916.833,427.5 910.167,427.5 903.5,427.5 Z"/></g>
<g><path style="opacity:1" fill="#f8f8f8" d="M 715.5,444.5 C 728.705,443.673 741.705,444.84 754.5,448C 772.235,457.976 779.402,473.143 776,493.5C 771.891,512.112 760.391,522.445 741.5,524.5C 732.833,524.5 724.167,524.5 715.5,524.5C 715.5,497.833 715.5,471.167 715.5,444.5 Z"/></g>
<g><path style="opacity:1" fill="#f9f9f8" d="M 1331.5,444.5 C 1339.84,444.334 1348.17,444.5 1356.5,445C 1381.96,450.048 1393.12,465.548 1390,491.5C 1386.67,511.662 1374.84,522.662 1354.5,524.5C 1346.83,524.5 1339.17,524.5 1331.5,524.5C 1331.5,497.833 1331.5,471.167 1331.5,444.5 Z"/></g>
<g><path style="opacity:1" fill="#00265c" d="M 587.5,443.5 C 588.21,445.893 588.877,448.393 589.5,451C 588.144,461.469 588.311,471.969 590,482.5C 591.741,480.469 591.907,478.302 590.5,476C 590.587,469.129 592.587,462.963 596.5,457.5C 595.443,457.094 594.109,457.094 592.5,457.5C 592.5,455.5 592.5,453.5 592.5,451.5C 595.351,450.677 598.018,449.344 600.5,447.5C 601.308,447.808 601.975,448.308 602.5,449C 600.671,449.273 599.171,450.107 598,451.5C 598.319,453.743 598.152,455.91 597.5,458C 600.804,459.793 601.471,458.793 599.5,455C 599.493,453.188 600.16,451.688 601.5,450.5C 604.053,452.705 604.053,455.038 601.5,457.5C 601.833,458.167 602.167,458.833 602.5,459.5C 600.992,461.507 599.158,463.174 597,464.5C 595.133,466.91 595.133,469.244 597,471.5C 598.569,471.153 600.402,470.986 602.5,471C 601.5,471.833 600.5,472.667 599.5,473.5C 600.472,476.132 601.805,478.465 603.5,480.5C 604.594,479.132 604.26,477.965 602.5,477C 604.078,475.906 605.745,475.072 607.5,474.5C 624.325,475.497 641.325,475.83 658.5,475.5C 658.5,480.833 658.5,486.167 658.5,491.5C 647.833,491.5 637.167,491.5 626.5,491.5C 625.391,490.71 624.058,490.21 622.5,490C 621.167,489 621.167,488 622.5,487C 620.865,486.46 619.532,486.96 618.5,488.5C 617.148,487.104 615.481,486.437 613.5,486.5C 609.845,487.082 606.178,487.582 602.5,488C 597.524,490.244 597.357,492.744 602,495.5C 602.667,496.167 602.667,496.833 602,497.5C 600.024,496.039 598.024,495.706 596,496.5C 590.642,494.564 590.142,491.731 594.5,488C 593.003,486.338 591.337,484.838 589.5,483.5C 588.833,492.991 588.167,502.325 587.5,511.5C 587.5,488.833 587.5,466.167 587.5,443.5 Z"/></g>
<g><path style="opacity:1" fill="#deccb3" d="M 1280.5,542.5 C 1280.5,504.167 1280.5,465.833 1280.5,427.5C 1274.17,427.5 1267.83,427.5 1261.5,427.5C 1261.67,454.169 1261.5,480.835 1261,507.5C 1260.28,506.956 1259.78,506.289 1259.5,505.5C 1260.5,479.339 1260.83,453.005 1260.5,426.5C 1267.5,426.5 1274.5,426.5 1281.5,426.5C 1281.83,465.337 1281.5,504.004 1280.5,542.5 Z"/></g>
<g><path style="opacity:1" fill="#c9ad81" d="M 1150.5,502.5 C 1150.5,477.5 1150.5,452.5 1150.5,427.5C 1144.17,427.5 1137.83,427.5 1131.5,427.5C 1131.83,452.006 1131.5,476.339 1130.5,500.5C 1130.5,475.833 1130.5,451.167 1130.5,426.5C 1137.5,426.5 1144.5,426.5 1151.5,426.5C 1151.83,452.005 1151.5,477.339 1150.5,502.5 Z"/></g>
<g><path style="opacity:1" fill="#e8e9f0" d="M 187.5,346.5 C 187.918,347.222 188.584,347.722 189.5,348C 186.054,350.925 182.387,353.425 178.5,355.5C 177.5,409.163 177.167,462.829 177.5,516.5C 176.501,460.336 176.168,404.002 176.5,347.5C 180.119,346.756 183.785,346.423 187.5,346.5 Z"/></g>
<g><path style="opacity:1" fill="#04265a" d="M 420.5,407.5 C 420.83,414.2 420.497,420.866 419.5,427.5C 416.91,430.383 416.91,433.383 419.5,436.5C 417.04,442.07 415.373,447.903 414.5,454C 414.833,455.5 415.167,457 415.5,458.5C 417.026,458.994 418.359,459.661 419.5,460.5C 422.184,461.382 425.518,461.716 429.5,461.5C 429.167,462.167 428.833,462.833 428.5,463.5C 429.782,465.179 430.782,467.013 431.5,469C 429.925,468.621 428.425,468.788 427,469.5C 426.329,472.748 426.829,473.081 428.5,470.5C 429.602,472.537 428.935,473.87 426.5,474.5C 426.44,473.957 426.107,473.624 425.5,473.5C 401.79,485.06 380.124,499.56 360.5,517C 351.652,526.014 342.652,534.848 333.5,543.5C 323.146,532.479 312.479,521.812 301.5,511.5C 306.031,510.318 309.864,507.984 313,504.5C 314.813,505.609 315.646,504.942 315.5,502.5C 314.325,502.719 313.325,502.386 312.5,501.5C 313.005,498.812 314.338,496.645 316.5,495C 315.167,494 313.833,493 312.5,492C 313.328,491.085 314.328,490.419 315.5,490C 320.144,489.759 324.311,488.925 328,487.5C 328.622,484.415 330.122,481.915 332.5,480C 329.891,479.136 328.225,477.97 327.5,476.5C 330.012,477.928 332.678,478.428 335.5,478C 354.326,468.56 373.659,460.394 393.5,453.5C 394.833,444.833 394.833,436.167 393.5,427.5C 373.522,436.325 353.355,444.658 333,452.5C 312.985,443.741 292.818,435.407 272.5,427.5C 273.79,424.876 275.79,422.876 278.5,421.5C 281.136,422.971 283.636,424.637 286,426.5C 286.995,425.934 287.828,425.267 288.5,424.5C 303.703,430.683 318.869,437.016 334,443.5C 362.633,431.011 391.466,419.011 420.5,407.5 Z"/></g>
<g><path style="opacity:1" fill="#999fbd" d="M 665.5,427.5 C 639.167,427.5 612.833,427.5 586.5,427.5C 586.5,465.833 586.5,504.167 586.5,542.5C 585.501,504.004 585.168,465.337 585.5,426.5C 612.339,426.169 639.005,426.502 665.5,427.5 Z"/></g>
<g><path style="opacity:1" fill="#062657" d="M 845.5,500.5 C 845.5,503.167 845.5,505.833 845.5,508.5C 844.127,508.657 842.793,508.49 841.5,508C 843.595,507.444 843.762,506.944 842,506.5C 840.118,507.606 838.284,507.606 836.5,506.5C 838.108,503.618 839.441,500.618 840.5,497.5C 839.833,496.167 838.833,495.167 837.5,494.5C 835.75,497.368 833.084,499.868 829.5,502C 830.793,502.49 832.127,502.657 833.5,502.5C 833.822,504.722 833.155,506.556 831.5,508C 832.167,508.667 832.833,509.333 833.5,510C 832.167,511.333 832.167,512.667 833.5,514C 832.045,516.016 830.045,516.849 827.5,516.5C 825.979,512.348 825.146,508.015 825,503.5C 824.5,477.835 824.333,452.169 824.5,426.5C 831.5,426.5 838.5,426.5 845.5,426.5C 845.5,451.167 845.5,475.833 845.5,500.5 Z"/></g>
<g><path style="opacity:1" fill="#00255d" d="M 832.5,430.5 C 835.451,431.245 838.451,431.412 841.5,431C 840.167,431.667 839.167,432.667 838.5,434C 839.906,437.324 840.572,440.824 840.5,444.5C 840.416,455.707 839.749,467.207 838.5,479C 838.681,481.589 839.014,484.255 839.5,487C 839,488.5 838.5,490 838,491.5C 836.956,489.285 836.29,486.952 836,484.5C 835.3,487.831 834.133,490.831 832.5,493.5C 828.633,493.526 827.966,492.359 830.5,490C 830.334,484.336 830.334,479.003 830.5,474C 829.978,473.05 829.311,472.216 828.5,471.5C 829.342,467.818 829.342,463.985 828.5,460C 828.594,457.046 829.094,456.879 830,459.5C 830.11,457.152 831.277,455.652 833.5,455C 830.747,453.826 829.747,451.993 830.5,449.5C 831.167,450.167 831.833,450.833 832.5,451.5C 833.685,450.147 835.019,448.98 836.5,448C 835.322,447.033 833.989,446.533 832.5,446.5C 833.123,444.047 833.289,441.714 833,439.5C 832.167,440.5 831.333,441.5 830.5,442.5C 829.292,438.226 829.959,434.226 832.5,430.5 Z"/></g>
<g><path style="opacity:1" fill="#9aa1ba" d="M 740.5,427.5 C 725.167,427.5 709.833,427.5 694.5,427.5C 694.5,465.833 694.5,504.167 694.5,542.5C 693.501,504.004 693.168,465.337 693.5,426.5C 709.342,426.17 725.009,426.504 740.5,427.5 Z"/></g>
<g><path style="opacity:1" fill="#00255c" d="M 254.5,486.5 C 256.54,488.177 258.54,489.844 260.5,491.5C 258.321,491.16 256.488,490.16 255,488.5C 253.77,489.275 253.437,490.275 254,491.5C 255.916,492.928 258.083,493.928 260.5,494.5C 259.194,497.066 257.361,498.066 255,497.5C 253.956,498.623 253.29,499.956 253,501.5C 252.282,500.549 251.449,500.383 250.5,501C 248.787,502.925 247.453,505.092 246.5,507.5C 242.317,510.501 237.817,512.835 233,514.5C 232.529,512.754 231.862,511.087 231,509.5C 230.667,510.5 230.333,511.5 230,512.5C 228.301,511.594 226.467,511.261 224.5,511.5C 224.167,511.5 223.833,511.5 223.5,511.5C 223.574,509.589 224.574,508.422 226.5,508C 225.207,507.51 223.873,507.343 222.5,507.5C 222.007,505.194 221.674,502.861 221.5,500.5C 224.206,500.425 226.873,500.092 229.5,499.5C 229.736,497.027 231.069,495.36 233.5,494.5C 234.711,495.274 234.711,496.107 233.5,497C 235.075,496.621 236.575,496.788 238,497.5C 238.49,496.207 238.657,494.873 238.5,493.5C 237.5,493.5 236.5,493.5 235.5,493.5C 235.579,492.07 235.246,490.736 234.5,489.5C 236.135,488.319 237.802,488.319 239.5,489.5C 241.271,488.965 241.604,488.131 240.5,487C 242.78,486.788 244.78,485.955 246.5,484.5C 247.251,485.376 247.751,486.376 248,487.5C 249.924,486.522 252.09,486.189 254.5,486.5 Z"/></g>
<g><path style="opacity:1" fill="#c8a97b" d="M 1028.5,444.5 C 1028.5,438.833 1028.5,433.167 1028.5,427.5C 1004.17,427.5 979.833,427.5 955.5,427.5C 955.5,465.833 955.5,504.167 955.5,542.5C 954.501,504.004 954.168,465.337 954.5,426.5C 979.5,426.5 1004.5,426.5 1029.5,426.5C 1029.82,432.69 1029.49,438.69 1028.5,444.5 Z"/></g>
<g><path style="opacity:1" fill="#001142" d="M 903.5,427.5 C 910.167,427.5 916.833,427.5 923.5,427.5C 923.5,452.833 923.5,478.167 923.5,503.5C 922.502,478.672 922.169,453.672 922.5,428.5C 919.833,428.5 917.167,428.5 914.5,428.5C 911.167,428.5 907.833,428.5 904.5,428.5C 904.5,452.833 904.5,477.167 904.5,501.5C 904.631,502.239 904.464,502.906 904,503.5C 903.51,502.207 903.343,500.873 903.5,499.5C 903.5,475.5 903.5,451.5 903.5,427.5 Z"/></g>
<g><path style="opacity:1" fill="#00265d" d="M 914.5,428.5 C 914.082,429.222 913.416,429.722 912.5,430C 913.997,431.871 915.997,432.871 918.5,433C 919.059,433.725 919.392,434.558 919.5,435.5C 916.208,440.21 916.208,444.71 919.5,449C 918.25,459.588 918.25,470.255 919.5,481C 919.197,483.724 918.364,486.224 917,488.5C 914.771,487.43 912.605,486.597 910.5,486C 911.24,487.785 911.907,489.618 912.5,491.5C 914.07,494.576 916.07,496.409 918.5,497C 917.65,498.286 916.483,498.119 915,496.5C 911.606,498.522 908.106,500.189 904.5,501.5C 904.5,477.167 904.5,452.833 904.5,428.5C 907.833,428.5 911.167,428.5 914.5,428.5 Z"/></g>
<g><path style="opacity:1" fill="#b88e50" d="M 1200.5,427.5 C 1220.16,453.462 1239.82,479.462 1259.5,505.5C 1259.78,506.289 1260.28,506.956 1261,507.5C 1261.5,480.835 1261.67,454.169 1261.5,427.5C 1267.83,427.5 1274.17,427.5 1280.5,427.5C 1280.5,465.833 1280.5,504.167 1280.5,542.5C 1274.13,542.83 1267.8,542.496 1261.5,541.5C 1242.07,514.958 1222.4,488.625 1202.5,462.5C 1202.22,461.711 1201.72,461.044 1201,460.5C 1200.5,487.831 1200.33,515.165 1200.5,542.5C 1194.17,542.5 1187.83,542.5 1181.5,542.5C 1181.5,504.167 1181.5,465.833 1181.5,427.5C 1187.83,427.5 1194.17,427.5 1200.5,427.5 Z"/></g>
<g><path style="opacity:1" fill="#e5d8bf" d="M 1331.5,444.5 C 1331.5,471.167 1331.5,497.833 1331.5,524.5C 1339.17,524.5 1346.83,524.5 1354.5,524.5C 1346.68,525.492 1338.68,525.826 1330.5,525.5C 1330.17,498.328 1330.5,471.328 1331.5,444.5 Z"/></g>
<g><path style="opacity:1" fill="#00093e" d="M 658.5,475.5 C 658.833,475.5 659.167,475.5 659.5,475.5C 659.5,481.167 659.5,486.833 659.5,492.5C 642.167,492.5 624.833,492.5 607.5,492.5C 613.645,491.51 619.978,491.177 626.5,491.5C 637.167,491.5 647.833,491.5 658.5,491.5C 658.5,486.167 658.5,480.833 658.5,475.5 Z"/></g>
<g><path style="opacity:1" fill="#959bb7" d="M 659.5,475.5 C 660.49,481.31 660.823,487.31 660.5,493.5C 642.833,493.5 625.167,493.5 607.5,493.5C 607.5,493.167 607.5,492.833 607.5,492.5C 624.833,492.5 642.167,492.5 659.5,492.5C 659.5,486.833 659.5,481.167 659.5,475.5 Z"/></g>
<g><path style="opacity:1" fill="#032558" d="M 745.5,427.5 C 783.87,433.86 801.37,456.527 798,495.5C 790.649,525.447 771.482,541.114 740.5,542.5C 734.69,541.51 728.69,541.177 722.5,541.5C 723.842,540.207 725.509,539.374 727.5,539C 725.091,537.799 723.091,536.133 721.5,534C 725.473,535.046 729.639,535.88 734,536.5C 738.097,535.614 739.597,533.281 738.5,529.5C 735.224,527.538 732.224,527.538 729.5,529.5C 727.657,529.221 725.823,528.887 724,528.5C 720.714,528.701 720.214,529.535 722.5,531C 720.19,531.497 717.857,531.663 715.5,531.5C 715.966,529.799 715.966,528.299 715.5,527C 724.343,526.83 733.01,526.33 741.5,525.5C 741.5,525.167 741.5,524.833 741.5,524.5C 760.391,522.445 771.891,512.112 776,493.5C 779.402,473.143 772.235,457.976 754.5,448C 741.705,444.84 728.705,443.673 715.5,444.5C 714.2,443.173 712.867,441.84 711.5,440.5C 711.833,440.167 712.167,439.833 712.5,439.5C 717.224,442.713 718.558,441.713 716.5,436.5C 715.07,436.421 713.736,436.754 712.5,437.5C 707.707,436.29 707.873,434.623 713,432.5C 714.488,433.196 715.988,432.862 717.5,431.5C 710.15,429.841 704.15,432.008 699.5,438C 701,439.5 702.5,441 704,442.5C 703.937,445.767 705.437,447.934 708.5,449C 706.195,451.27 704.029,451.436 702,449.5C 700.417,451.911 699.417,454.578 699,457.5C 697.115,453.985 695.949,450.319 695.5,446.5C 695.5,440.5 695.5,434.5 695.5,428.5C 712.342,428.83 729.008,428.497 745.5,427.5 Z"/></g>
<g><path style="opacity:1" fill="#e4d4bf" d="M 1023.5,493.5 C 1008.01,494.496 992.342,494.83 976.5,494.5C 976.83,510.675 976.496,526.675 975.5,542.5C 975.5,526.167 975.5,509.833 975.5,493.5C 991.5,493.5 1007.5,493.5 1023.5,493.5 Z"/></g>
<g><path style="opacity:1" fill="#c8ad7f" d="M 1200.5,427.5 C 1194.17,427.5 1187.83,427.5 1181.5,427.5C 1181.5,465.833 1181.5,504.167 1181.5,542.5C 1180.5,504.004 1180.17,465.337 1180.5,426.5C 1187.35,426.176 1194.02,426.509 1200.5,427.5 Z"/></g>
<g><path style="opacity:1" fill="#e2d3bf" d="M 1202.5,462.5 C 1201.83,489.167 1201.17,515.833 1200.5,542.5C 1200.33,515.165 1200.5,487.831 1201,460.5C 1201.72,461.044 1202.22,461.711 1202.5,462.5 Z"/></g>
<g><path style="opacity:1" fill="#0c2960" d="M 607.5,524.5 C 627.34,524.17 647.007,524.503 666.5,525.5C 646.66,525.17 626.993,525.503 607.5,526.5C 607.389,527.117 607.056,527.617 606.5,528C 609.539,528.353 612.205,529.52 614.5,531.5C 616.001,530.248 617.668,529.248 619.5,528.5C 620.88,529.976 622.547,530.976 624.5,531.5C 625.833,530.167 627.167,528.833 628.5,527.5C 632.698,528.809 636.864,528.809 641,527.5C 642.912,528.692 644.912,529.692 647,530.5C 649.314,528.04 651.814,527.54 654.5,529C 654.167,529.333 653.833,529.667 653.5,530C 655.5,530.833 657.5,531.667 659.5,532.5C 657.639,533.528 656.305,535.028 655.5,537C 646.998,539.247 638.331,540.08 629.5,539.5C 629.367,536.104 628.367,535.771 626.5,538.5C 623.588,535.79 620.921,535.957 618.5,539C 614.247,539.2 610.08,539.7 606,540.5C 603.031,539.397 602.864,538.064 605.5,536.5C 605.167,535.5 604.5,534.833 603.5,534.5C 600.839,535.332 598.172,536.166 595.5,537C 597.715,537.17 599.715,537.837 601.5,539C 598.47,539.288 595.636,539.455 593,539.5C 592.578,537.645 592.078,535.811 591.5,534C 591.224,530.571 591.557,527.071 592.5,523.5C 592.519,520.794 591.852,518.294 590.5,516C 591.848,514.426 592.514,512.593 592.5,510.5C 591.999,506.587 591.999,502.587 592.5,498.5C 593.5,498.5 594.5,498.5 595.5,498.5C 596.686,502.782 599.02,503.449 602.5,500.5C 603.7,505.079 603.367,509.579 601.5,514C 602.606,515.882 602.606,517.716 601.5,519.5C 600.391,518.41 599.391,518.41 598.5,519.5C 600.156,523.947 603.156,525.613 607.5,524.5 Z"/></g>
<g><path style="opacity:1" fill="#47567a" d="M 715.5,444.5 C 715.5,471.167 715.5,497.833 715.5,524.5C 724.167,524.5 732.833,524.5 741.5,524.5C 741.5,524.833 741.5,525.167 741.5,525.5C 732.5,525.5 723.5,525.5 714.5,525.5C 714.169,498.328 714.502,471.328 715.5,444.5 Z"/></g>
<g><path style="opacity:1" fill="#f6f6f7" d="M 349.5,628.5 C 348.417,628.539 347.417,628.873 346.5,629.5C 345.526,627.257 345.192,624.924 345.5,622.5C 346.873,622.657 348.207,622.49 349.5,622C 347.942,621.79 346.609,621.29 345.5,620.5C 360.163,584.831 382.496,554.831 412.5,530.5C 425.318,521.25 438.984,513.25 453.5,506.5C 459.826,517.149 465.66,528.149 471,539.5C 471.49,540.793 471.657,542.127 471.5,543.5C 419.826,556.195 379.16,584.528 349.5,628.5 Z"/></g>
<g><path style="opacity:1" fill="#f6f6f8" d="M 223.5,511.5 C 223.833,511.5 224.167,511.5 224.5,511.5C 261.444,532.11 290.444,560.777 311.5,597.5C 311.724,599.787 312.391,601.953 313.5,604C 313.265,604.873 312.931,605.707 312.5,606.5C 314.497,606.477 315.831,607.81 316.5,610.5C 315.754,611.736 315.421,613.07 315.5,614.5C 312.763,614.599 310.096,614.265 307.5,613.5C 277.928,578.032 240.594,554.699 195.5,543.5C 200.77,530.957 206.603,518.624 213,506.5C 216.555,508.073 220.055,509.739 223.5,511.5 Z"/></g>
<g><path style="opacity:1" fill="#032857" d="M 626.5,491.5 C 619.978,491.177 613.645,491.51 607.5,492.5C 607.5,492.833 607.5,493.167 607.5,493.5C 607.5,503.833 607.5,514.167 607.5,524.5C 603.156,525.613 600.156,523.947 598.5,519.5C 599.391,518.41 600.391,518.41 601.5,519.5C 602.606,517.716 602.606,515.882 601.5,514C 603.367,509.579 603.7,505.079 602.5,500.5C 599.02,503.449 596.686,502.782 595.5,498.5C 594.5,498.5 593.5,498.5 592.5,498.5C 591.999,502.587 591.999,506.587 592.5,510.5C 592.514,512.593 591.848,514.426 590.5,516C 591.852,518.294 592.519,520.794 592.5,523.5C 591.557,527.071 591.224,530.571 591.5,534C 592.078,535.811 592.578,537.645 593,539.5C 595.636,539.455 598.47,539.288 601.5,539C 599.715,537.837 597.715,537.17 595.5,537C 598.172,536.166 600.839,535.332 603.5,534.5C 604.5,534.833 605.167,535.5 605.5,536.5C 602.864,538.064 603.031,539.397 606,540.5C 610.08,539.7 614.247,539.2 618.5,539C 620.921,535.957 623.588,535.79 626.5,538.5C 628.367,535.771 629.367,536.104 629.5,539.5C 638.331,540.08 646.998,539.247 655.5,537C 656.305,535.028 657.639,533.528 659.5,532.5C 657.5,531.667 655.5,530.833 653.5,530C 653.833,529.667 654.167,529.333 654.5,529C 651.814,527.54 649.314,528.04 647,530.5C 644.912,529.692 642.912,528.692 641,527.5C 636.864,528.809 632.698,528.809 628.5,527.5C 627.167,528.833 625.833,530.167 624.5,531.5C 622.547,530.976 620.88,529.976 619.5,528.5C 617.668,529.248 616.001,530.248 614.5,531.5C 612.205,529.52 609.539,528.353 606.5,528C 607.056,527.617 607.389,527.117 607.5,526.5C 626.5,526.5 645.5,526.5 664.5,526.5C 664.5,531.5 664.5,536.5 664.5,541.5C 638.833,541.5 613.167,541.5 587.5,541.5C 587.5,531.5 587.5,521.5 587.5,511.5C 588.167,502.325 588.833,492.991 589.5,483.5C 591.337,484.838 593.003,486.338 594.5,488C 590.142,491.731 590.642,494.564 596,496.5C 598.024,495.706 600.024,496.039 602,497.5C 602.667,496.833 602.667,496.167 602,495.5C 597.357,492.744 597.524,490.244 602.5,488C 606.178,487.582 609.845,487.082 613.5,486.5C 615.481,486.437 617.148,487.104 618.5,488.5C 619.532,486.96 620.865,486.46 622.5,487C 621.167,488 621.167,489 622.5,490C 624.058,490.21 625.391,490.71 626.5,491.5 Z"/></g>
<g><path style="opacity:1" fill="#001143" d="M 740.5,427.5 C 742.167,427.5 743.833,427.5 745.5,427.5C 729.008,428.497 712.342,428.83 695.5,428.5C 695.5,434.5 695.5,440.5 695.5,446.5C 695.5,478.167 695.5,509.833 695.5,541.5C 704.5,541.5 713.5,541.5 722.5,541.5C 728.69,541.177 734.69,541.51 740.5,542.5C 725.167,542.5 709.833,542.5 694.5,542.5C 694.5,504.167 694.5,465.833 694.5,427.5C 709.833,427.5 725.167,427.5 740.5,427.5 Z"/></g>
<g><path style="opacity:1" fill="#bc9050" d="M 295.5,507.5 C 297.246,509.252 299.246,510.585 301.5,511.5C 312.479,521.812 323.146,532.479 333.5,543.5C 342.652,534.848 351.652,526.014 360.5,517C 380.124,499.56 401.79,485.06 425.5,473.5C 426.107,473.624 426.44,473.957 426.5,474.5C 404.57,491.089 386.57,511.089 372.5,534.5C 354.813,561.22 341.979,590.22 334,621.5C 320.563,571.595 296.063,528.262 260.5,491.5C 258.54,489.844 256.54,488.177 254.5,486.5C 250.955,481.789 246.621,477.955 241.5,475C 240.304,474.346 240.304,473.846 241.5,473.5C 261.215,482.344 279.215,493.677 295.5,507.5 Z"/></g>
<g><path style="opacity:1" fill="#f4f4f6" d="M 330.5,489.5 C 345.993,490.478 352.16,498.478 349,513.5C 342.488,523.448 333.988,525.615 323.5,520C 317.385,513.878 315.885,506.712 319,498.5C 322.134,494.524 325.967,491.524 330.5,489.5 Z"/></g>
<g><path style="opacity:1" fill="#042659" d="M 914.5,428.5 C 917.167,428.5 919.833,428.5 922.5,428.5C 922.169,453.672 922.502,478.672 923.5,503.5C 920.647,526.186 907.981,539.686 885.5,544C 864.099,548.31 846.265,542.477 832,526.5C 830.214,523.264 828.714,519.93 827.5,516.5C 830.045,516.849 832.045,516.016 833.5,514C 832.167,512.667 832.167,511.333 833.5,510C 832.833,509.333 832.167,508.667 831.5,508C 833.155,506.556 833.822,504.722 833.5,502.5C 832.127,502.657 830.793,502.49 829.5,502C 833.084,499.868 835.75,497.368 837.5,494.5C 838.833,495.167 839.833,496.167 840.5,497.5C 839.441,500.618 838.108,503.618 836.5,506.5C 838.284,507.606 840.118,507.606 842,506.5C 843.762,506.944 843.595,507.444 841.5,508C 842.793,508.49 844.127,508.657 845.5,508.5C 845.5,505.833 845.5,503.167 845.5,500.5C 848.686,520.131 860.352,528.631 880.5,526C 894.448,522.556 902.115,513.722 903.5,499.5C 903.343,500.873 903.51,502.207 904,503.5C 904.464,502.906 904.631,502.239 904.5,501.5C 908.106,500.189 911.606,498.522 915,496.5C 916.483,498.119 917.65,498.286 918.5,497C 916.07,496.409 914.07,494.576 912.5,491.5C 911.907,489.618 911.24,487.785 910.5,486C 912.605,486.597 914.771,487.43 917,488.5C 918.364,486.224 919.197,483.724 919.5,481C 918.25,470.255 918.25,459.588 919.5,449C 916.208,444.71 916.208,440.21 919.5,435.5C 919.392,434.558 919.059,433.725 918.5,433C 915.997,432.871 913.997,431.871 912.5,430C 913.416,429.722 914.082,429.222 914.5,428.5 Z"/></g>
<g><path style="opacity:1" fill="#b88d50" d="M 1130.5,500.5 C 1131.5,476.339 1131.83,452.006 1131.5,427.5C 1137.83,427.5 1144.17,427.5 1150.5,427.5C 1150.5,452.5 1150.5,477.5 1150.5,502.5C 1148.95,525.887 1136.62,539.721 1113.5,544C 1097.25,546.883 1082.25,543.883 1068.5,535C 1059.78,527.067 1054.62,517.234 1053,505.5C 1052.5,479.169 1052.33,452.835 1052.5,426.5C 1059.5,426.5 1066.5,426.5 1073.5,426.5C 1073.33,451.169 1073.5,475.836 1074,500.5C 1076.41,519.632 1087.25,528.132 1106.5,526C 1121.15,523.848 1129.15,515.348 1130.5,500.5 Z"/></g>
<g><path style="opacity:1" fill="#09275a" d="M 190.5,358.5 C 191.833,358.5 193.167,358.5 194.5,358.5C 195.162,360.47 195.828,362.47 196.5,364.5C 195.752,369.637 195.085,374.803 194.5,380C 195.765,387.054 195.765,394.054 194.5,401C 195.176,412.803 195.843,424.637 196.5,436.5C 195.999,452.513 195.999,468.346 196.5,484C 196.006,489.136 195.006,494.136 193.5,499C 195.041,500.579 196.208,502.413 197,504.5C 197.548,500.307 198.714,496.307 200.5,492.5C 200.054,489.724 199.054,487.224 197.5,485C 198.167,484.333 198.833,483.667 199.5,483C 196.833,481.667 196.833,480.333 199.5,479C 198.351,477.396 198.351,475.73 199.5,474C 199.05,472.715 198.383,471.548 197.5,470.5C 199.119,459.332 200.119,447.998 200.5,436.5C 202.728,439.901 204.394,443.568 205.5,447.5C 205.304,449.286 204.471,450.619 203,451.5C 202.851,448.721 202.017,448.221 200.5,450C 201.833,456 201.833,462 200.5,468C 201,468.5 201.5,469 202,469.5C 202.333,466.167 202.667,462.833 203,459.5C 204.158,459.998 204.991,460.831 205.5,462C 205.056,463.762 204.556,463.595 204,461.5C 204.319,463.595 204.152,465.595 203.5,467.5C 203.482,469.373 203.982,469.706 205,468.5C 205.49,469.793 205.657,471.127 205.5,472.5C 203.571,472.231 201.905,472.731 200.5,474C 202.46,473.853 204.127,474.853 205.5,477C 204.991,478.169 204.158,479.002 203,479.5C 201.334,478.66 201.167,479.16 202.5,481C 204.674,481.181 206.507,480.348 208,478.5C 208.398,473.463 207.898,468.296 206.5,463C 208.074,462.301 209.407,462.635 210.5,464C 209.565,466.381 209.232,468.881 209.5,471.5C 210.5,471.5 211.5,471.5 212.5,471.5C 212.326,469.139 211.993,466.806 211.5,464.5C 212.675,464.281 213.675,464.614 214.5,465.5C 213.294,467.516 213.294,469.516 214.5,471.5C 216.083,469.554 216.583,467.554 216,465.5C 217.356,464.62 218.856,464.286 220.5,464.5C 220.5,465.5 220.5,466.5 220.5,467.5C 219.5,467.5 218.5,467.5 217.5,467.5C 217.714,469.144 217.38,470.644 216.5,472C 217.5,474 218.5,474 219.5,472C 218.663,470.989 218.33,469.822 218.5,468.5C 220.199,468.34 221.866,468.506 223.5,469C 222.552,469.483 221.552,469.649 220.5,469.5C 220.338,471.527 220.505,473.527 221,475.5C 223.184,474.892 225.184,475.559 227,477.5C 228.117,476.051 228.784,474.384 229,472.5C 229.667,474.833 229.667,477.167 229,479.5C 228.346,478.304 227.846,478.304 227.5,479.5C 228.325,480.386 229.325,480.719 230.5,480.5C 230.351,479.448 230.517,478.448 231,477.5C 231.118,479.573 232.118,480.907 234,481.5C 240.177,480.074 241.01,478.074 236.5,475.5C 237.376,474.749 238.376,474.249 239.5,474C 237.167,472.333 234.833,470.667 232.5,469C 234.974,465.58 237.974,464.913 241.5,467C 241.5,468 241.5,469 241.5,470C 244.101,470.92 246.768,471.587 249.5,472C 248.833,472.333 248.167,472.667 247.5,473C 249.75,471.525 252.25,471.025 255,471.5C 255.308,472.308 255.808,472.975 256.5,473.5C 257.316,470.453 259.316,468.787 262.5,468.5C 262.192,467.692 261.692,467.025 261,466.5C 259.542,468.524 257.709,468.691 255.5,467C 257.747,465.691 260.08,465.025 262.5,465C 263.949,466.117 265.616,466.784 267.5,467C 268.059,467.725 268.392,468.558 268.5,469.5C 268.176,471.569 267.342,471.902 266,470.5C 265.788,473.758 265.288,476.924 264.5,480C 269.472,484.293 274.972,487.793 281,490.5C 281.5,490 282,489.5 282.5,489C 284.657,488.922 286.657,488.755 288.5,488.5C 289.694,491.32 289.694,494.153 288.5,497C 289.34,498.171 290.173,499.338 291,500.5C 292.814,499.24 294.647,499.24 296.5,500.5C 291.318,501.776 291.318,502.443 296.5,502.5C 296.371,504.216 296.038,505.883 295.5,507.5C 279.215,493.677 261.215,482.344 241.5,473.5C 240.304,473.846 240.304,474.346 241.5,475C 246.621,477.955 250.955,481.789 254.5,486.5C 252.09,486.189 249.924,486.522 248,487.5C 247.751,486.376 247.251,485.376 246.5,484.5C 244.78,485.955 242.78,486.788 240.5,487C 241.604,488.131 241.271,488.965 239.5,489.5C 237.802,488.319 236.135,488.319 234.5,489.5C 235.246,490.736 235.579,492.07 235.5,493.5C 236.5,493.5 237.5,493.5 238.5,493.5C 238.657,494.873 238.49,496.207 238,497.5C 236.575,496.788 235.075,496.621 233.5,497C 234.711,496.107 234.711,495.274 233.5,494.5C 231.069,495.36 229.736,497.027 229.5,499.5C 226.873,500.092 224.206,500.425 221.5,500.5C 221.674,502.861 222.007,505.194 222.5,507.5C 223.873,507.343 225.207,507.51 226.5,508C 224.574,508.422 223.574,509.589 223.5,511.5C 220.055,509.739 216.555,508.073 213,506.5C 206.603,518.624 200.77,530.957 195.5,543.5C 240.594,554.699 277.928,578.032 307.5,613.5C 315.577,623.667 322.077,634.667 327,646.5C 294.038,604.929 251.371,578.929 199,568.5C 194.516,552.452 191.516,536.119 190,519.5C 189.171,465.763 189.338,412.096 190.5,358.5 Z"/></g>
<g><path style="opacity:1" fill="#042559" d="M 260.5,491.5 C 296.063,528.262 320.563,571.595 334,621.5C 341.979,590.22 354.813,561.22 372.5,534.5C 374.62,536.495 377.12,538.162 380,539.5C 380.414,539.043 380.914,538.709 381.5,538.5C 384.5,539.667 387.5,540.833 390.5,542C 389.346,542.914 389.513,543.747 391,544.5C 391.903,543.299 393.069,542.465 394.5,542C 393.273,540.413 393.606,539.079 395.5,538C 397.974,537.887 399.974,536.887 401.5,535C 396.893,533.363 392.56,531.196 388.5,528.5C 389.767,526.629 389.767,524.796 388.5,523C 389.904,521.663 391.404,520.497 393,519.5C 394.704,519.974 396.538,520.141 398.5,520C 400.443,521.555 402.61,522.722 405,523.5C 405.772,523.355 406.439,523.022 407,522.5C 406.822,524.44 407.822,526.107 410,527.5C 411.049,526.483 412.216,526.316 413.5,527C 411.689,528.041 411.355,529.207 412.5,530.5C 382.496,554.831 360.163,584.831 345.5,620.5C 340.608,630.332 336.775,640.665 334,651.5C 328.926,632.368 321.426,614.368 311.5,597.5C 290.444,560.777 261.444,532.11 224.5,511.5C 226.467,511.261 228.301,511.594 230,512.5C 230.333,511.5 230.667,510.5 231,509.5C 231.862,511.087 232.529,512.754 233,514.5C 237.817,512.835 242.317,510.501 246.5,507.5C 247.453,505.092 248.787,502.925 250.5,501C 251.449,500.383 252.282,500.549 253,501.5C 253.29,499.956 253.956,498.623 255,497.5C 257.361,498.066 259.194,497.066 260.5,494.5C 258.083,493.928 255.916,492.928 254,491.5C 253.437,490.275 253.77,489.275 255,488.5C 256.488,490.16 258.321,491.16 260.5,491.5 Z"/></g>
<g><path style="opacity:1" fill="#f1f2f4" d="M 190.5,358.5 C 189.338,412.096 189.171,465.763 190,519.5C 191.516,536.119 194.516,552.452 199,568.5C 251.371,578.929 294.038,604.929 327,646.5C 322.077,634.667 315.577,623.667 307.5,613.5C 310.096,614.265 312.763,614.599 315.5,614.5C 315.421,613.07 315.754,611.736 316.5,610.5C 315.831,607.81 314.497,606.477 312.5,606.5C 312.931,605.707 313.265,604.873 313.5,604C 312.391,601.953 311.724,599.787 311.5,597.5C 321.426,614.368 328.926,632.368 334,651.5C 336.775,640.665 340.608,630.332 345.5,620.5C 346.609,621.29 347.942,621.79 349.5,622C 348.207,622.49 346.873,622.657 345.5,622.5C 345.192,624.924 345.526,627.257 346.5,629.5C 347.417,628.873 348.417,628.539 349.5,628.5C 345.746,634.674 342.58,641.007 340,647.5C 351.708,631.625 365.541,617.959 381.5,606.5C 382.758,608.301 384.424,609.801 386.5,611C 389.223,610.482 391.889,610.649 394.5,611.5C 371.171,625.15 350.838,642.483 333.5,663.5C 301.27,623.398 259.936,599.398 209.5,591.5C 221.196,613.385 236.529,632.552 255.5,649C 279.302,668.747 305.302,685.247 333.5,698.5C 349.175,690.665 364.509,682.331 379.5,673.5C 379.414,674.496 379.748,675.329 380.5,676C 378.833,676.333 377.167,676.667 375.5,677C 377.991,677.626 377.991,678.459 375.5,679.5C 376.612,680.265 377.279,681.265 377.5,682.5C 363.279,691.027 348.446,698.36 333,704.5C 287.49,684.932 248.49,656.599 216,619.5C 195.321,594.131 182.821,565.131 178.5,532.5C 179.82,529.72 180.32,526.72 180,523.5C 179.346,524.696 178.846,524.696 178.5,523.5C 179.242,522.713 180.075,522.047 181,521.5C 181.945,525.114 182.612,528.781 183,532.5C 184.832,533.858 186.665,534.192 188.5,533.5C 186.717,531.155 185.717,528.488 185.5,525.5C 186.781,472.8 186.781,420.3 185.5,368C 186.282,365.26 186.782,362.426 187,359.5C 188.011,358.663 189.178,358.33 190.5,358.5 Z"/></g>
<g><path style="opacity:1" fill="#838faa" d="M 1044.5,586.5 C 1050.31,585.51 1056.31,585.177 1062.5,585.5C 1062.77,587.099 1062.43,588.432 1061.5,589.5C 1061.5,588.5 1061.5,587.5 1061.5,586.5C 1055.83,586.5 1050.17,586.5 1044.5,586.5 Z"/></g>
<g><path style="opacity:1" fill="#8592a9" d="M 1229.5,586.5 C 1234.31,585.513 1239.31,585.179 1244.5,585.5C 1244.77,587.099 1244.43,588.432 1243.5,589.5C 1243.5,588.5 1243.5,587.5 1243.5,586.5C 1238.83,586.5 1234.17,586.5 1229.5,586.5 Z"/></g>
<g><path style="opacity:1" fill="#051b51" d="M 1287.5,586.5 C 1292.17,586.5 1296.83,586.5 1301.5,586.5C 1301.5,587.5 1301.5,588.5 1301.5,589.5C 1297.83,589.5 1294.17,589.5 1290.5,589.5C 1290.5,591.5 1290.5,593.5 1290.5,595.5C 1293.83,595.5 1297.17,595.5 1300.5,595.5C 1300.5,596.5 1300.5,597.5 1300.5,598.5C 1297.17,598.5 1293.83,598.5 1290.5,598.5C 1290.5,600.833 1290.5,603.167 1290.5,605.5C 1289.67,601.018 1289.17,596.351 1289,591.5C 1288.67,596.5 1288.33,601.5 1288,606.5C 1287.5,599.842 1287.33,593.175 1287.5,586.5 Z"/></g>
<g><path style="opacity:1" fill="#76829f" d="M 703.5,586.5 C 702.5,586.5 701.5,586.5 700.5,586.5C 700.821,592.026 700.488,597.36 699.5,602.5C 699.5,596.833 699.5,591.167 699.5,585.5C 701.099,585.232 702.432,585.566 703.5,586.5 Z"/></g>
<g><path style="opacity:1" fill="#0b225a" d="M 775.5,589.5 C 774.51,595.645 774.177,601.978 774.5,608.5C 773.5,608.5 772.5,608.5 771.5,608.5C 771.823,601.978 771.49,595.645 770.5,589.5C 768.167,589.5 765.833,589.5 763.5,589.5C 763.5,588.5 763.5,587.5 763.5,586.5C 769.5,586.5 775.5,586.5 781.5,586.5C 781.5,587.5 781.5,588.5 781.5,589.5C 779.5,589.5 777.5,589.5 775.5,589.5 Z"/></g>
<g><path style="opacity:1" fill="#17285e" d="M 937.5,585.5 C 942.757,584.521 947.09,586.021 950.5,590C 948.833,592 947.167,592 945.5,590C 935.431,588.732 931.931,592.898 935,602.5C 938.745,607.479 942.912,607.812 947.5,603.5C 950.079,604.888 950.079,606.388 947.5,608C 934.707,611.523 928.873,606.69 930,593.5C 931.69,589.979 934.19,587.312 937.5,585.5 Z"/></g>
<g><path style="opacity:1" fill="#12265c" d="M 1007.5,586.5 C 1007.67,592.509 1007.5,598.509 1007,604.5C 1003.85,608.551 999.687,610.051 994.5,609C 991.466,607.809 989.799,605.642 989.5,602.5C 990.326,597.684 990.826,592.684 991,587.5C 991.174,592.684 991.674,597.684 992.5,602.5C 994.718,605.387 997.718,606.221 1001.5,605C 1002.38,604.292 1003.05,603.458 1003.5,602.5C 1004.49,597.36 1004.82,592.026 1004.5,586.5C 1005.5,586.5 1006.5,586.5 1007.5,586.5 Z"/></g>
<g><path style="opacity:1" fill="#112257" d="M 1179.5,586.5 C 1181.5,586.5 1183.5,586.5 1185.5,586.5C 1187.84,593.85 1190.17,601.184 1192.5,608.5C 1191.17,608.5 1189.83,608.5 1188.5,608.5C 1188.51,604.657 1186.51,602.99 1182.5,603.5C 1177.7,602.635 1175.37,604.635 1175.5,609.5C 1174.17,609.5 1172.83,609.5 1171.5,609.5C 1173.88,601.738 1176.55,594.071 1179.5,586.5 Z"/></g>
<g><path style="opacity:1" fill="#0e2256" d="M 1253.5,586.5 C 1255.29,586.215 1256.95,586.548 1258.5,587.5C 1260.67,591.833 1262.83,596.167 1265,600.5C 1267.27,595.613 1269.77,590.946 1272.5,586.5C 1273.83,586.5 1275.17,586.5 1276.5,586.5C 1276.5,593.833 1276.5,601.167 1276.5,608.5C 1275.5,608.5 1274.5,608.5 1273.5,608.5C 1273.67,603.156 1273.5,597.823 1273,592.5C 1270.81,596.749 1268.81,601.082 1267,605.5C 1266.44,606.022 1265.77,606.355 1265,606.5C 1262.06,602.953 1259.89,598.953 1258.5,594.5C 1258.44,593.957 1258.11,593.624 1257.5,593.5C 1256.51,598.456 1256.17,603.456 1256.5,608.5C 1255.5,608.5 1254.5,608.5 1253.5,608.5C 1253.5,601.167 1253.5,593.833 1253.5,586.5 Z"/></g>
<g><path style="opacity:1" fill="#041b56" d="M 1349.5,589.5 C 1348.51,595.645 1348.18,601.978 1348.5,608.5C 1347.5,608.5 1346.5,608.5 1345.5,608.5C 1345.5,602.167 1345.5,595.833 1345.5,589.5C 1342.83,589.5 1340.17,589.5 1337.5,589.5C 1337.5,588.5 1337.5,587.5 1337.5,586.5C 1343.5,586.5 1349.5,586.5 1355.5,586.5C 1355.5,587.5 1355.5,588.5 1355.5,589.5C 1353.5,589.5 1351.5,589.5 1349.5,589.5 Z"/></g>
<g><path style="opacity:1" fill="#132457" d="M 656.5,586.5 C 660.846,586.334 665.179,586.501 669.5,587C 673.907,588.652 676.241,591.818 676.5,596.5C 676.66,601.556 674.66,605.389 670.5,608C 665.845,608.499 661.179,608.666 656.5,608.5C 656.5,601.167 656.5,593.833 656.5,586.5 Z"/></g>
<g><path style="opacity:1" fill="#081e56" d="M 1044.5,586.5 C 1050.17,586.5 1055.83,586.5 1061.5,586.5C 1061.5,587.5 1061.5,588.5 1061.5,589.5C 1059.5,589.5 1057.5,589.5 1055.5,589.5C 1054.51,595.645 1054.18,601.978 1054.5,608.5C 1053.5,608.5 1052.5,608.5 1051.5,608.5C 1051.82,601.978 1051.49,595.645 1050.5,589.5C 1048.5,589.5 1046.5,589.5 1044.5,589.5C 1044.5,588.5 1044.5,587.5 1044.5,586.5 Z"/></g>
<g><path style="opacity:1" fill="#12245a" d="M 964.5,585.5 C 976.837,584.67 982.004,590.336 980,602.5C 976.373,608.158 971.207,610.325 964.5,609C 953.888,601.17 953.888,593.336 964.5,585.5 Z"/></g>
<g><path style="opacity:1" fill="#b88e51" d="M 429.5,662.5 C 413.482,671.509 396.482,678.176 378.5,682.5C 411.554,662.618 439.387,636.951 462,605.5C 477.559,581.041 486.892,554.375 490,525.5C 490.5,466.168 490.667,406.834 490.5,347.5C 437.928,342.92 388.762,327.586 343,301.5C 341.422,295.354 339.922,289.188 338.5,283C 338.833,282.5 339.167,282 339.5,281.5C 390.319,312.994 445.653,329.994 505.5,332.5C 505.667,397.834 505.5,463.168 505,528.5C 497.192,583.132 472.026,627.799 429.5,662.5 Z"/></g>
<g><path style="opacity:1" fill="#3d5276" d="M 790.5,586.5 C 790.5,593.833 790.5,601.167 790.5,608.5C 791.5,608.5 792.5,608.5 793.5,608.5C 792.432,609.434 791.099,609.768 789.5,609.5C 789.175,601.648 789.508,593.982 790.5,586.5 Z"/></g>
<g><path style="opacity:1" fill="#7785a3" d="M 1007.5,586.5 C 1006.5,586.5 1005.5,586.5 1004.5,586.5C 1004.82,592.026 1004.49,597.36 1003.5,602.5C 1003.5,596.833 1003.5,591.167 1003.5,585.5C 1005.1,585.232 1006.43,585.566 1007.5,586.5 Z"/></g>
<g><path style="opacity:1" fill="#051b53" d="M 848.5,600.5 C 848.369,601.376 848.702,602.043 849.5,602.5C 850.495,597.208 850.828,591.875 850.5,586.5C 851.5,586.5 852.5,586.5 853.5,586.5C 853.5,593.833 853.5,601.167 853.5,608.5C 852.5,608.5 851.5,608.5 850.5,608.5C 846.479,603.804 842.812,598.804 839.5,593.5C 839.44,592.957 839.107,592.624 838.5,592.5C 837.505,597.792 837.172,603.125 837.5,608.5C 836.5,608.5 835.5,608.5 834.5,608.5C 834.5,601.167 834.5,593.833 834.5,586.5C 835.873,586.343 837.207,586.51 838.5,587C 841.964,591.441 845.298,595.941 848.5,600.5 Z"/></g>
<g><path style="opacity:1" fill="#02124b" d="M 992.5,602.5 C 991.674,597.684 991.174,592.684 991,587.5C 990.826,592.684 990.326,597.684 989.5,602.5C 989.5,597.167 989.5,591.833 989.5,586.5C 990.5,586.5 991.5,586.5 992.5,586.5C 992.5,591.833 992.5,597.167 992.5,602.5 Z"/></g>
<g><path style="opacity:1" fill="#0e2153" d="M 746.5,586.5 C 748.288,586.215 749.955,586.548 751.5,587.5C 754.57,594.379 757.236,601.379 759.5,608.5C 758.167,608.5 756.833,608.5 755.5,608.5C 755.579,607.07 755.246,605.736 754.5,604.5C 750.893,603.511 747.226,603.177 743.5,603.5C 743.74,607.527 742.074,608.861 738.5,607.5C 741.175,600.471 743.842,593.471 746.5,586.5 Z"/></g>
<g><path style="opacity:1" fill="#7e8aa5" d="M 1163.5,586.5 C 1164.49,593.982 1164.83,601.648 1164.5,609.5C 1162.59,609.784 1160.92,609.451 1159.5,608.5C 1160.83,608.5 1162.17,608.5 1163.5,608.5C 1163.5,601.167 1163.5,593.833 1163.5,586.5 Z"/></g>
<g><path style="opacity:1" fill="#e2e5ec" d="M 1181.5,590.5 C 1183.43,593.409 1185.1,596.576 1186.5,600C 1183.77,600.818 1181.11,600.652 1178.5,599.5C 1179.8,596.573 1180.8,593.573 1181.5,590.5 Z"/></g>
<g><path style="opacity:1" fill="#0d2356" d="M 647.5,605.5 C 647.5,606.5 647.5,607.5 647.5,608.5C 642.5,608.5 637.5,608.5 632.5,608.5C 632.5,601.167 632.5,593.833 632.5,586.5C 637.5,586.5 642.5,586.5 647.5,586.5C 647.5,587.5 647.5,588.5 647.5,589.5C 643.833,589.5 640.167,589.5 636.5,589.5C 636.5,591.5 636.5,593.5 636.5,595.5C 639.833,595.5 643.167,595.5 646.5,595.5C 646.5,596.5 646.5,597.5 646.5,598.5C 643.167,598.5 639.833,598.5 636.5,598.5C 636.5,600.833 636.5,603.167 636.5,605.5C 640.167,605.5 643.833,605.5 647.5,605.5 Z"/></g>
<g><path style="opacity:1" fill="#f3f4f5" d="M 660.5,589.5 C 669.158,588.327 672.992,591.994 672,600.5C 669.575,605.063 665.742,606.729 660.5,605.5C 660.5,600.167 660.5,594.833 660.5,589.5 Z"/></g>
<g><path style="opacity:1" fill="#ecedf1" d="M 965.5,589.5 C 975.535,589.381 978.702,594.048 975,603.5C 970.375,607.646 966.041,607.313 962,602.5C 959.325,597.011 960.492,592.678 965.5,589.5 Z"/></g>
<g><path style="opacity:1" fill="#455c80" d="M 1102.5,586.5 C 1103.92,585.549 1105.59,585.216 1107.5,585.5C 1107.5,593.5 1107.5,601.5 1107.5,609.5C 1105.9,609.768 1104.57,609.434 1103.5,608.5C 1104.5,608.5 1105.5,608.5 1106.5,608.5C 1106.5,601.167 1106.5,593.833 1106.5,586.5C 1105.17,586.5 1103.83,586.5 1102.5,586.5 Z"/></g>
<g><path style="opacity:1" fill="#65799c" d="M 850.5,586.5 C 850.828,591.875 850.495,597.208 849.5,602.5C 848.702,602.043 848.369,601.376 848.5,600.5C 849.167,595.833 849.833,591.167 850.5,586.5 Z"/></g>
<g><path style="opacity:1" fill="#02225b" d="M 790.5,586.5 C 791.5,586.5 792.5,586.5 793.5,586.5C 793.5,593.833 793.5,601.167 793.5,608.5C 792.5,608.5 791.5,608.5 790.5,608.5C 790.5,601.167 790.5,593.833 790.5,586.5 Z"/></g>
<g><path style="opacity:1" fill="#8790aa" d="M 1050.5,589.5 C 1051.49,595.645 1051.82,601.978 1051.5,608.5C 1052.5,608.5 1053.5,608.5 1054.5,608.5C 1054.18,601.978 1054.51,595.645 1055.5,589.5C 1055.5,596.167 1055.5,602.833 1055.5,609.5C 1053.83,609.5 1052.17,609.5 1050.5,609.5C 1050.5,602.833 1050.5,596.167 1050.5,589.5 Z"/></g>
<g><path style="opacity:1" fill="#586f92" d="M 1272.5,586.5 C 1273.92,585.549 1275.59,585.216 1277.5,585.5C 1277.5,593.5 1277.5,601.5 1277.5,609.5C 1275.9,609.768 1274.57,609.434 1273.5,608.5C 1274.5,608.5 1275.5,608.5 1276.5,608.5C 1276.5,601.167 1276.5,593.833 1276.5,586.5C 1275.17,586.5 1273.83,586.5 1272.5,586.5 Z"/></g>
<g><path style="opacity:1" fill="#081e53" d="M 1314.5,586.5 C 1318.31,591.431 1322.15,596.431 1326,601.5C 1326.5,596.511 1326.67,591.511 1326.5,586.5C 1327.5,586.5 1328.5,586.5 1329.5,586.5C 1329.5,593.833 1329.5,601.167 1329.5,608.5C 1328.5,608.5 1327.5,608.5 1326.5,608.5C 1322.69,603.569 1318.85,598.569 1315,593.5C 1314.5,598.489 1314.33,603.489 1314.5,608.5C 1313.5,608.5 1312.5,608.5 1311.5,608.5C 1311.5,601.167 1311.5,593.833 1311.5,586.5C 1312.5,586.5 1313.5,586.5 1314.5,586.5 Z"/></g>
<g><path style="opacity:1" fill="#15265f" d="M 719.5,585.5 C 724.28,584.742 728.28,586.075 731.5,589.5C 730.421,591.876 729.088,592.043 727.5,590C 720.511,587.834 716.511,590.334 715.5,597.5C 717.432,606.136 722.099,608.136 729.5,603.5C 732.079,604.888 732.079,606.388 729.5,608C 716.707,611.523 710.873,606.69 712,593.5C 714.028,590.308 716.528,587.641 719.5,585.5 Z"/></g>
<g><path style="opacity:1" fill="#546a8a" d="M 1314.5,586.5 C 1313.5,586.5 1312.5,586.5 1311.5,586.5C 1311.5,593.833 1311.5,601.167 1311.5,608.5C 1312.5,608.5 1313.5,608.5 1314.5,608.5C 1313.43,609.434 1312.1,609.768 1310.5,609.5C 1310.5,601.5 1310.5,593.5 1310.5,585.5C 1312.1,585.232 1313.43,585.566 1314.5,586.5 Z"/></g>
<g><path style="opacity:1" fill="#e3e6eb" d="M 748.5,591.5 C 750.607,594.057 751.941,597.057 752.5,600.5C 750.167,600.5 747.833,600.5 745.5,600.5C 746.216,597.402 747.216,594.402 748.5,591.5 Z"/></g>
<g><path style="opacity:1" fill="#576a8c" d="M 839.5,593.5 C 838.512,598.64 838.179,603.974 838.5,609.5C 836.901,609.768 835.568,609.434 834.5,608.5C 835.5,608.5 836.5,608.5 837.5,608.5C 837.172,603.125 837.505,597.792 838.5,592.5C 839.107,592.624 839.44,592.957 839.5,593.5 Z"/></g>
<g><path style="opacity:1" fill="#8e97b0" d="M 1242.5,595.5 C 1243.43,596.568 1243.77,597.901 1243.5,599.5C 1240.17,599.5 1236.83,599.5 1233.5,599.5C 1233.5,601.5 1233.5,603.5 1233.5,605.5C 1232.53,603.393 1232.2,601.059 1232.5,598.5C 1235.83,598.5 1239.17,598.5 1242.5,598.5C 1242.5,597.5 1242.5,596.5 1242.5,595.5 Z"/></g>
<g><path style="opacity:1" fill="#b58b49" d="M 1369.5,597.5 C 1382.83,597.5 1396.17,597.5 1409.5,597.5C 1409.5,598.5 1409.5,599.5 1409.5,600.5C 1396.17,600.5 1382.83,600.5 1369.5,600.5C 1369.5,599.5 1369.5,598.5 1369.5,597.5 Z"/></g>
<g><path style="opacity:1" fill="#b48946" d="M 585.5,597.5 C 596.5,597.5 607.5,597.5 618.5,597.5C 618.5,598.5 618.5,599.5 618.5,600.5C 607.5,600.5 596.5,600.5 585.5,600.5C 585.5,599.5 585.5,598.5 585.5,597.5 Z"/></g>
<g><path style="opacity:1" fill="#142455" d="M 883.5,586.5 C 885.288,586.215 886.955,586.548 888.5,587.5C 891.362,594.087 894.029,600.754 896.5,607.5C 894.124,608.817 892.457,608.15 891.5,605.5C 887.833,604.167 884.167,604.167 880.5,605.5C 879.729,609.181 877.729,610.181 874.5,608.5C 878.056,601.389 881.056,594.055 883.5,586.5 Z"/></g>
<g><path style="opacity:1" fill="#e2e7ec" d="M 885.5,590.5 C 887.058,593.292 888.391,596.292 889.5,599.5C 887.167,600.833 884.833,600.833 882.5,599.5C 883.351,596.422 884.351,593.422 885.5,590.5 Z"/></g>
<g><path style="opacity:1" fill="#0f2359" d="M 1022.5,594.5 C 1022.44,593.957 1022.11,593.624 1021.5,593.5C 1020.51,598.456 1020.17,603.456 1020.5,608.5C 1019.5,608.5 1018.5,608.5 1017.5,608.5C 1017.5,601.167 1017.5,593.833 1017.5,586.5C 1019.14,586.286 1020.64,586.62 1022,587.5C 1025.33,592.167 1028.67,596.833 1032,601.5C 1032.5,596.511 1032.67,591.511 1032.5,586.5C 1033.83,586.5 1035.17,586.5 1036.5,586.5C 1036.5,594.167 1036.5,601.833 1036.5,609.5C 1034.86,609.714 1033.36,609.38 1032,608.5C 1029.07,603.631 1025.9,598.965 1022.5,594.5 Z"/></g>
<g><path style="opacity:1" fill="#97a1b9" d="M 1022.5,594.5 C 1021.83,599.167 1021.17,603.833 1020.5,608.5C 1020.17,603.456 1020.51,598.456 1021.5,593.5C 1022.11,593.624 1022.44,593.957 1022.5,594.5 Z"/></g>
<g><path style="opacity:1" fill="#19285b" d="M 1123.5,586.5 C 1125.29,586.215 1126.95,586.548 1128.5,587.5C 1131.77,594.639 1134.43,601.972 1136.5,609.5C 1135.17,609.5 1133.83,609.5 1132.5,609.5C 1132.32,605.588 1130.15,603.921 1126,604.5C 1121.87,603.561 1119.37,605.061 1118.5,609C 1117.06,609.781 1115.72,609.614 1114.5,608.5C 1117.51,601.138 1120.51,593.804 1123.5,586.5 Z"/></g>
<g><path style="opacity:1" fill="#e5e7ed" d="M 1125.5,590.5 C 1127.06,593.292 1128.39,596.292 1129.5,599.5C 1127.26,600.474 1124.92,600.808 1122.5,600.5C 1123.5,597.162 1124.5,593.829 1125.5,590.5 Z"/></g>
<g><path style="opacity:1" fill="#475d83" d="M 1149.5,593.5 C 1148.51,598.64 1148.18,603.974 1148.5,609.5C 1146.9,609.768 1145.57,609.434 1144.5,608.5C 1145.5,608.5 1146.5,608.5 1147.5,608.5C 1147.17,603.125 1147.51,597.792 1148.5,592.5C 1149.11,592.624 1149.44,592.957 1149.5,593.5 Z"/></g>
<g><path style="opacity:1" fill="#14255a" d="M 809.5,585.5 C 823.012,585.188 827.846,591.521 824,604.5C 817.226,611.002 810.56,611.002 804,604.5C 800.628,596.479 802.461,590.145 809.5,585.5 Z"/></g>
<g><path style="opacity:1" fill="#eff0f3" d="M 810.5,589.5 C 818.656,588.821 822.156,592.488 821,600.5C 818.612,605.226 814.778,606.726 809.5,605C 806.682,601.662 805.849,597.829 807,593.5C 807.69,591.65 808.856,590.316 810.5,589.5 Z"/></g>
<g><path style="opacity:1" fill="#042558" d="M 401.5,656.5 C 397.735,655.525 397.735,654.192 401.5,652.5C 401.291,651.914 400.957,651.414 400.5,651C 397.491,651.16 395.325,649.993 394,647.5C 392.951,648.517 391.784,648.684 390.5,648C 391.089,646.127 390.422,644.46 388.5,643C 386.608,642.027 384.608,641.36 382.5,641C 382.833,640.667 383.167,640.333 383.5,640C 380.629,639.882 377.962,639.216 375.5,638C 375.493,636.417 375.826,634.751 376.5,633C 378.656,633.69 380.823,633.523 383,632.5C 383.772,632.645 384.439,632.978 385,633.5C 385.495,635.473 385.662,637.473 385.5,639.5C 394.356,637.353 402.689,638.519 410.5,643C 411.833,643.667 413.167,643.667 414.5,643C 412.789,641.867 412.289,640.367 413,638.5C 414.743,636.773 416.576,636.106 418.5,636.5C 417.917,634.998 417.084,633.665 416,632.5C 415,632.833 414,633.167 413,633.5C 411,632.5 411,631.5 413,630.5C 414.716,631.552 415.716,630.886 416,628.5C 418.899,628.977 421.566,629.977 424,631.5C 426.339,628.994 428.839,626.661 431.5,624.5C 429.115,621.247 429.115,618.08 431.5,615C 429.924,615.152 428.591,615.985 427.5,617.5C 426.494,617.062 426.494,616.396 427.5,615.5C 425.758,613.027 423.925,613.027 422,615.5C 420,614.167 418,612.833 416,611.5C 415.289,609.633 415.789,608.133 417.5,607C 416.207,606.51 414.873,606.343 413.5,606.5C 413.5,605.5 413.5,604.5 413.5,603.5C 427.836,596.833 442.836,592.833 458.5,591.5C 446.688,612.158 432.022,630.658 414.5,647C 410.551,650.796 406.217,653.963 401.5,656.5 Z"/></g>
<g><path style="opacity:1" fill="#4e6086" d="M 1088.5,593.5 C 1087.51,598.64 1087.18,603.974 1087.5,609.5C 1085.9,609.768 1084.57,609.434 1083.5,608.5C 1084.5,608.5 1085.5,608.5 1086.5,608.5C 1086.17,603.125 1086.51,597.792 1087.5,592.5C 1088.11,592.624 1088.44,592.957 1088.5,593.5 Z"/></g>
<g><path style="opacity:1" fill="#0d2155" d="M 1102.5,586.5 C 1103.83,586.5 1105.17,586.5 1106.5,586.5C 1106.5,593.833 1106.5,601.167 1106.5,608.5C 1105.5,608.5 1104.5,608.5 1103.5,608.5C 1103.67,603.489 1103.5,598.489 1103,593.5C 1101.18,597.136 1099.35,600.802 1097.5,604.5C 1095.95,605.452 1094.29,605.785 1092.5,605.5C 1091.73,601.302 1090.4,597.302 1088.5,593.5C 1088.44,592.957 1088.11,592.624 1087.5,592.5C 1086.51,597.792 1086.17,603.125 1086.5,608.5C 1085.5,608.5 1084.5,608.5 1083.5,608.5C 1083.5,601.167 1083.5,593.833 1083.5,586.5C 1085.47,586.261 1087.3,586.594 1089,587.5C 1091.17,591.842 1093.34,596.176 1095.5,600.5C 1097.86,595.781 1100.19,591.115 1102.5,586.5 Z"/></g>
<g><path style="opacity:1" fill="#1b2f5e" d="M 1287.5,586.5 C 1287.33,593.175 1287.5,599.842 1288,606.5C 1288.33,601.5 1288.67,596.5 1289,591.5C 1289.17,596.351 1289.67,601.018 1290.5,605.5C 1294.5,605.5 1298.5,605.5 1302.5,605.5C 1302.5,606.5 1302.5,607.5 1302.5,608.5C 1297.17,608.5 1291.83,608.5 1286.5,608.5C 1286.18,600.981 1286.51,593.648 1287.5,586.5 Z"/></g>
<g><path style="opacity:1" fill="#adb6c9" d="M 853.5,586.5 C 854.492,593.982 854.825,601.648 854.5,609.5C 852.901,609.768 851.568,609.434 850.5,608.5C 851.5,608.5 852.5,608.5 853.5,608.5C 853.5,601.167 853.5,593.833 853.5,586.5 Z"/></g>
<g><path style="opacity:1" fill="#071e53" d="M 1163.5,586.5 C 1163.5,593.833 1163.5,601.167 1163.5,608.5C 1162.17,608.5 1160.83,608.5 1159.5,608.5C 1156.17,603.5 1152.83,598.5 1149.5,593.5C 1149.44,592.957 1149.11,592.624 1148.5,592.5C 1147.51,597.792 1147.17,603.125 1147.5,608.5C 1146.5,608.5 1145.5,608.5 1144.5,608.5C 1144.5,601.167 1144.5,593.833 1144.5,586.5C 1147.32,586.081 1149.49,587.081 1151,589.5C 1154,593.833 1157,598.167 1160,602.5C 1160.5,597.177 1160.67,591.844 1160.5,586.5C 1161.5,586.5 1162.5,586.5 1163.5,586.5 Z"/></g>
<g><path style="opacity:1" fill="#9099b3" d="M 770.5,589.5 C 771.49,595.645 771.823,601.978 771.5,608.5C 772.5,608.5 773.5,608.5 774.5,608.5C 774.177,601.978 774.51,595.645 775.5,589.5C 775.5,596.167 775.5,602.833 775.5,609.5C 773.833,609.5 772.167,609.5 770.5,609.5C 770.5,602.833 770.5,596.167 770.5,589.5 Z"/></g>
<g><path style="opacity:1" fill="#14255c" d="M 910.5,585.5 C 915.177,585.059 919.177,586.392 922.5,589.5C 921.187,591.885 919.52,592.052 917.5,590C 906.96,589.567 903.96,594.233 908.5,604C 912.599,607.352 916.599,607.186 920.5,603.5C 922.488,604.289 922.821,605.455 921.5,607C 908.376,611.863 902.209,607.363 903,593.5C 904.353,589.65 906.853,586.983 910.5,585.5 Z"/></g>
<g><path style="opacity:1" fill="#6f83a0" d="M 1326.5,586.5 C 1327.57,585.566 1328.9,585.232 1330.5,585.5C 1330.5,593.5 1330.5,601.5 1330.5,609.5C 1328.9,609.768 1327.57,609.434 1326.5,608.5C 1327.5,608.5 1328.5,608.5 1329.5,608.5C 1329.5,601.167 1329.5,593.833 1329.5,586.5C 1328.5,586.5 1327.5,586.5 1326.5,586.5 Z"/></g>
<g><path style="opacity:1" fill="#8a96b0" d="M 1349.5,589.5 C 1349.5,596.167 1349.5,602.833 1349.5,609.5C 1347.9,609.768 1346.57,609.434 1345.5,608.5C 1346.5,608.5 1347.5,608.5 1348.5,608.5C 1348.18,601.978 1348.51,595.645 1349.5,589.5 Z"/></g>
<g><path style="opacity:1" fill="#102559" d="M 1229.5,586.5 C 1234.17,586.5 1238.83,586.5 1243.5,586.5C 1243.5,587.5 1243.5,588.5 1243.5,589.5C 1240.17,589.5 1236.83,589.5 1233.5,589.5C 1233.5,591.5 1233.5,593.5 1233.5,595.5C 1236.5,595.5 1239.5,595.5 1242.5,595.5C 1242.5,596.5 1242.5,597.5 1242.5,598.5C 1239.17,598.5 1235.83,598.5 1232.5,598.5C 1232.2,601.059 1232.53,603.393 1233.5,605.5C 1237.17,605.5 1240.83,605.5 1244.5,605.5C 1244.5,606.5 1244.5,607.5 1244.5,608.5C 1239.5,608.5 1234.5,608.5 1229.5,608.5C 1229.5,601.167 1229.5,593.833 1229.5,586.5 Z"/></g>
<g><path style="opacity:1" fill="#01255b" d="M 394.5,611.5 C 400.729,608.551 407.062,605.885 413.5,603.5C 413.5,604.5 413.5,605.5 413.5,606.5C 414.873,606.343 416.207,606.51 417.5,607C 415.789,608.133 415.289,609.633 416,611.5C 418,612.833 420,614.167 422,615.5C 423.925,613.027 425.758,613.027 427.5,615.5C 426.494,616.396 426.494,617.062 427.5,617.5C 428.591,615.985 429.924,615.152 431.5,615C 429.115,618.08 429.115,621.247 431.5,624.5C 428.839,626.661 426.339,628.994 424,631.5C 421.566,629.977 418.899,628.977 416,628.5C 415.716,630.886 414.716,631.552 413,630.5C 411,631.5 411,632.5 413,633.5C 414,633.167 415,632.833 416,632.5C 417.084,633.665 417.917,634.998 418.5,636.5C 416.576,636.106 414.743,636.773 413,638.5C 412.289,640.367 412.789,641.867 414.5,643C 413.167,643.667 411.833,643.667 410.5,643C 402.689,638.519 394.356,637.353 385.5,639.5C 385.662,637.473 385.495,635.473 385,633.5C 384.439,632.978 383.772,632.645 383,632.5C 380.823,633.523 378.656,633.69 376.5,633C 375.826,634.751 375.493,636.417 375.5,638C 377.962,639.216 380.629,639.882 383.5,640C 383.167,640.333 382.833,640.667 382.5,641C 384.608,641.36 386.608,642.027 388.5,643C 390.422,644.46 391.089,646.127 390.5,648C 391.784,648.684 392.951,648.517 394,647.5C 395.325,649.993 397.491,651.16 400.5,651C 400.957,651.414 401.291,651.914 401.5,652.5C 397.735,654.192 397.735,655.525 401.5,656.5C 394.528,662.651 387.195,668.317 379.5,673.5C 364.509,682.331 349.175,690.665 333.5,698.5C 305.302,685.247 279.302,668.747 255.5,649C 236.529,632.552 221.196,613.385 209.5,591.5C 259.936,599.398 301.27,623.398 333.5,663.5C 350.838,642.483 371.171,625.15 394.5,611.5 Z"/></g>
<g><path style="opacity:1" fill="#1d2d62" d="M 699.5,602.5 C 700.488,597.36 700.821,592.026 700.5,586.5C 701.5,586.5 702.5,586.5 703.5,586.5C 703.666,592.509 703.499,598.509 703,604.5C 700.103,609.155 695.937,610.655 690.5,609C 688.714,608.215 687.214,607.049 686,605.5C 684.63,599.258 684.13,592.925 684.5,586.5C 685.833,586.5 687.167,586.5 688.5,586.5C 688.09,592.621 688.59,598.621 690,604.5C 692.401,605.602 694.901,605.769 697.5,605C 698.381,604.292 699.047,603.458 699.5,602.5 Z"/></g>
<g><path style="opacity:1" fill="#18265a" d="M 1207.5,585.5 C 1212.14,585.046 1216.14,586.38 1219.5,589.5C 1219.11,590.72 1218.28,591.387 1217,591.5C 1205.86,587.313 1201.53,590.98 1204,602.5C 1207.24,606.771 1211.08,607.438 1215.5,604.5C 1216.45,602.955 1216.79,601.288 1216.5,599.5C 1214.5,599.5 1212.5,599.5 1210.5,599.5C 1210.5,598.5 1210.5,597.5 1210.5,596.5C 1213.83,596.5 1217.17,596.5 1220.5,596.5C 1220.82,599.898 1220.49,603.232 1219.5,606.5C 1208.78,612.465 1201.78,609.631 1198.5,598C 1199.04,591.977 1202.04,587.81 1207.5,585.5 Z"/></g>
<g><path style="opacity:1" fill="#939eb5" d="M 1253.5,586.5 C 1253.5,593.833 1253.5,601.167 1253.5,608.5C 1254.5,608.5 1255.5,608.5 1256.5,608.5C 1256.17,603.456 1256.51,598.456 1257.5,593.5C 1258.11,593.624 1258.44,593.957 1258.5,594.5C 1257.51,599.305 1257.18,604.305 1257.5,609.5C 1255.83,609.5 1254.17,609.5 1252.5,609.5C 1252.17,601.648 1252.51,593.982 1253.5,586.5 Z"/></g>
<g><path style="opacity:1" fill="#8a91ad" d="M 647.5,605.5 C 648.434,606.568 648.768,607.901 648.5,609.5C 642.974,609.821 637.64,609.488 632.5,608.5C 637.5,608.5 642.5,608.5 647.5,608.5C 647.5,607.5 647.5,606.5 647.5,605.5 Z"/></g>
<g><path style="opacity:1" fill="#04265a" d="M 176.5,347.5 C 176.168,404.002 176.501,460.336 177.5,516.5C 177.324,521.88 177.658,527.213 178.5,532.5C 182.821,565.131 195.321,594.131 216,619.5C 248.49,656.599 287.49,684.932 333,704.5C 348.446,698.36 363.279,691.027 377.5,682.5C 377.833,682.5 378.167,682.5 378.5,682.5C 396.482,678.176 413.482,671.509 429.5,662.5C 400.559,686.993 368.559,706.993 333.5,722.5C 298.716,706.826 266.716,686.993 237.5,663C 212.366,641.204 192.533,615.371 178,585.5C 170.082,567.581 164.915,548.914 162.5,529.5C 163.166,525.647 163.833,521.647 164.5,517.5C 165.167,516.833 165.833,516.167 166.5,515.5C 168.098,516.485 169.765,516.651 171.5,516C 168.917,511.272 169.251,506.605 172.5,502C 171.606,500.604 170.939,499.104 170.5,497.5C 171.951,494.17 172.617,490.67 172.5,487C 170.854,475.562 169.687,464.062 169,452.5C 167.833,449.833 166.667,447.167 165.5,444.5C 165.904,442.236 165.904,440.07 165.5,438C 166.787,436.59 167.954,435.09 169,433.5C 169.516,429.434 170.35,425.434 171.5,421.5C 170.893,416.809 170.226,412.142 169.5,407.5C 170.128,401.657 170.461,395.824 170.5,390C 169.108,386.251 168.441,382.584 168.5,379C 168.908,376.08 170.241,373.746 172.5,372C 172.05,370.715 171.383,369.548 170.5,368.5C 171.309,366.929 171.643,365.262 171.5,363.5C 169.086,365.224 166.42,366.558 163.5,367.5C 163.459,362.239 164.626,357.239 167,352.5C 168.214,350.951 169.714,349.785 171.5,349C 170.833,348.667 170.167,348.333 169.5,348C 172.064,348.436 174.398,348.269 176.5,347.5 Z"/></g>
</svg>
