<?xml version="1.0" encoding="utf-8"?>
<!-- Generator: Adobe Illustrator 26.5.0, SVG Export Plug-In . SVG Version: 6.00 Build 0)  -->
<svg version="1.1" id="图层_1" xmlns="http://www.w3.org/2000/svg" xmlns:xlink="http://www.w3.org/1999/xlink" x="0px" y="0px"
	 viewBox="0 0 28 28" style="enable-background:new 0 0 28 28;" xml:space="preserve">
<style type="text/css">
	.st0{fill-rule:evenodd;clip-rule:evenodd;fill:#FFFFFF;}
	
		.st1{clip-path:url(#SVGID_00000036930236491212665770000011324354605533057167_);fill-rule:evenodd;clip-rule:evenodd;fill:url(#SVGID_00000049904784734468595920000001383545512755834524_);}
	.st2{opacity:0;fill:#161616;}
	.st3{fill-rule:evenodd;clip-rule:evenodd;fill:#6178B6;}
	
		.st4{clip-path:url(#SVGID_00000075848199371418357010000001766832731028736163_);fill-rule:evenodd;clip-rule:evenodd;fill:url(#SVGID_00000147190240604224216760000010940942988658272921_);}
	
		.st5{clip-path:url(#SVGID_00000128447383324357490930000009979705413196600962_);fill-rule:evenodd;clip-rule:evenodd;fill:url(#SVGID_00000076592980459176356690000004218608342139055772_);}
	.st6{fill:#FFFFFF;}
</style>
<g>
	<g>
		<path class="st3" d="M27.87,13.62c-0.22-3.75-3.45-6.61-7.2-6.39c-0.35,0.02-0.68,0.07-1.01,0.14c-1.26-2.12-3.63-3.47-6.26-3.32
			c-2.63,0.16-4.82,1.79-5.82,4.04C7.34,8.65,7.17,9.24,7.08,9.85c-0.07,0.45-0.09,0.92-0.06,1.4c0.05,0.79,0.23,1.54,0.52,2.23
			c0.36-0.65,0.81-1.24,1.33-1.75c-0.03-0.19-0.06-0.39-0.07-0.59c-0.02-0.32-0.01-0.63,0.03-0.94C8.91,9.6,9.1,9.03,9.37,8.5
			c0.79-1.5,2.32-2.56,4.14-2.67c1.81-0.11,3.46,0.76,4.43,2.15c0.34,0.49,0.59,1.04,0.74,1.63c0.52-0.28,1.09-0.48,1.7-0.56
			c0.13-0.02,0.27-0.03,0.4-0.04c2.77-0.17,5.14,1.94,5.31,4.71c0.16,2.67-1.8,4.97-4.42,5.28c-0.16,0.64-0.39,1.26-0.69,1.83
			c0.17,0,0.34,0,0.51-0.01C25.24,20.6,28.1,17.37,27.87,13.62z"/>
		<g>
			<defs>
				<path id="SVGID_00000173861583760740370220000011417922284730728832_" d="M20.98,16.75c-0.05-0.83-0.24-1.61-0.56-2.33
					c-0.19-0.43-0.42-0.84-0.69-1.21c-0.37-0.52-0.82-0.99-1.32-1.39c-0.55-0.43-1.16-0.79-1.83-1.04
					c-0.23-0.09-0.47-0.16-0.71-0.22c-0.12-1.04-0.99-1.86-2.07-1.86c-1.16,0-2.09,0.94-2.09,2.09c0,1.16,0.94,2.09,2.09,2.09
					c0.58,0,1.11-0.24,1.49-0.63c0.26,0.06,0.51,0.13,0.75,0.23c0.51,0.21,0.99,0.49,1.4,0.85c0.46,0.39,0.84,0.86,1.14,1.4
					c0.23,0.42,0.39,0.87,0.5,1.36c0.05,0.25,0.09,0.5,0.11,0.76c0.02,0.32,0.01,0.63-0.03,0.94c-0.08,0.61-0.26,1.18-0.54,1.71
					c-0.79,1.5-2.32,2.56-4.14,2.67c-1.81,0.11-3.46-0.76-4.43-2.15c-0.34-0.49-0.59-1.04-0.74-1.63c-0.52,0.28-1.09,0.48-1.7,0.56
					c-0.13,0.02-0.27,0.03-0.4,0.04c-2.77,0.17-5.14-1.94-5.31-4.71C1.75,11.6,3.71,9.3,6.33,8.99c0.13-0.64,0.35-1.25,0.63-1.83
					c-0.15,0-0.3,0-0.45,0.01c-3.75,0.22-6.61,3.45-6.39,7.2c0.22,3.75,3.45,6.61,7.2,6.39c0.35-0.02,0.68-0.07,1.01-0.14
					c1.26,2.12,3.63,3.47,6.26,3.32c2.63-0.16,4.82-1.79,5.82-4.04c0.25-0.55,0.42-1.14,0.51-1.76
					C20.99,17.69,21.01,17.22,20.98,16.75z"/>
			</defs>
			<clipPath id="SVGID_00000087412729185577216910000016552427740597860499_">
				<use xlink:href="#SVGID_00000173861583760740370220000011417922284730728832_"  style="overflow:visible;"/>
			</clipPath>
			
				<linearGradient id="SVGID_00000085966319647647938440000009080166164802370230_" gradientUnits="userSpaceOnUse" x1="20.8412" y1="17.1749" x2="-2.7633" y2="10.7453">
				<stop  offset="0.2751" style="stop-color:#7EDDD2"/>
				<stop  offset="0.3331" style="stop-color:#7CD7D0"/>
				<stop  offset="0.4079" style="stop-color:#78C7CC"/>
				<stop  offset="0.4918" style="stop-color:#70ADC5"/>
				<stop  offset="0.5819" style="stop-color:#6688BA"/>
				<stop  offset="0.6164" style="stop-color:#6178B6"/>
			</linearGradient>
			
				<rect x="-2.46" y="3.11" style="clip-path:url(#SVGID_00000087412729185577216910000016552427740597860499_);fill-rule:evenodd;clip-rule:evenodd;fill:url(#SVGID_00000085966319647647938440000009080166164802370230_);" width="23.81" height="21.93"/>
		</g>
	</g>
	<rect class="st2" width="28" height="28"/>
</g>
</svg>
